<svg width="120" height="120" xmlns="http://www.w3.org/2000/svg"><path fill="#e8c3d2" d="M50 4h1v1h-1zM51 4h1v1h-1zM52 4h1v1h-1zM53 4h1v1h-1zM54 4h1v1h-1zM55 4h1v1h-1zM56 4h1v1h-1zM57 4h1v1h-1zM58 4h1v1h-1zM59 4h1v1h-1zM60 4h1v1h-1zM61 4h1v1h-1zM62 4h1v1h-1zM63 4h1v1h-1zM64 4h1v1h-1zM65 4h1v1h-1zM66 4h1v1h-1zM67 4h1v1h-1zM68 4h1v1h-1zM69 4h1v1h-1zM50 5h1v1h-1zM51 5h1v1h-1zM52 5h1v1h-1zM53 5h1v1h-1zM54 5h1v1h-1zM55 5h1v1h-1zM56 5h1v1h-1zM57 5h1v1h-1zM58 5h1v1h-1zM59 5h1v1h-1zM60 5h1v1h-1zM61 5h1v1h-1zM62 5h1v1h-1zM63 5h1v1h-1zM64 5h1v1h-1zM65 5h1v1h-1zM66 5h1v1h-1zM67 5h1v1h-1zM68 5h1v1h-1zM69 5h1v1h-1zM42 6h1v1h-1zM43 6h1v1h-1zM44 6h1v1h-1zM45 6h1v1h-1zM46 6h1v1h-1zM47 6h1v1h-1zM48 6h1v1h-1zM49 6h1v1h-1zM58 6h1v1h-1zM59 6h1v1h-1zM60 6h1v1h-1zM61 6h1v1h-1zM62 6h1v1h-1zM63 6h1v1h-1zM64 6h1v1h-1zM65 6h1v1h-1zM66 6h1v1h-1zM67 6h1v1h-1zM68 6h1v1h-1zM69 6h1v1h-1zM70 6h1v1h-1zM71 6h1v1h-1zM72 6h1v1h-1zM73 6h1v1h-1zM74 6h1v1h-1zM75 6h1v1h-1zM76 6h1v1h-1zM77 6h1v1h-1zM42 7h1v1h-1zM43 7h1v1h-1zM44 7h1v1h-1zM45 7h1v1h-1zM46 7h1v1h-1zM47 7h1v1h-1zM48 7h1v1h-1zM49 7h1v1h-1zM58 7h1v1h-1zM59 7h1v1h-1zM60 7h1v1h-1zM61 7h1v1h-1zM62 7h1v1h-1zM63 7h1v1h-1zM64 7h1v1h-1zM65 7h1v1h-1zM66 7h1v1h-1zM67 7h1v1h-1zM68 7h1v1h-1zM69 7h1v1h-1zM70 7h1v1h-1zM71 7h1v1h-1zM72 7h1v1h-1zM73 7h1v1h-1zM74 7h1v1h-1zM75 7h1v1h-1zM76 7h1v1h-1zM77 7h1v1h-1zM36 8h1v1h-1zM37 8h1v1h-1zM38 8h1v1h-1zM39 8h1v1h-1zM40 8h1v1h-1zM41 8h1v1h-1zM58 8h1v1h-1zM59 8h1v1h-1zM60 8h1v1h-1zM61 8h1v1h-1zM62 8h1v1h-1zM63 8h1v1h-1zM64 8h1v1h-1zM65 8h1v1h-1zM70 8h1v1h-1zM71 8h1v1h-1zM72 8h1v1h-1zM73 8h1v1h-1zM74 8h1v1h-1zM75 8h1v1h-1zM76 8h1v1h-1zM77 8h1v1h-1zM78 8h1v1h-1zM79 8h1v1h-1zM80 8h1v1h-1zM81 8h1v1h-1zM82 8h1v1h-1zM83 8h1v1h-1zM36 9h1v1h-1zM37 9h1v1h-1zM38 9h1v1h-1zM39 9h1v1h-1zM40 9h1v1h-1zM41 9h1v1h-1zM58 9h1v1h-1zM59 9h1v1h-1zM60 9h1v1h-1zM61 9h1v1h-1zM62 9h1v1h-1zM63 9h1v1h-1zM64 9h1v1h-1zM65 9h1v1h-1zM70 9h1v1h-1zM71 9h1v1h-1zM72 9h1v1h-1zM73 9h1v1h-1zM74 9h1v1h-1zM75 9h1v1h-1zM76 9h1v1h-1zM77 9h1v1h-1zM78 9h1v1h-1zM79 9h1v1h-1zM80 9h1v1h-1zM81 9h1v1h-1zM82 9h1v1h-1zM83 9h1v1h-1zM32 10h1v1h-1zM33 10h1v1h-1zM34 10h1v1h-1zM35 10h1v1h-1zM36 10h1v1h-1zM37 10h1v1h-1zM58 10h1v1h-1zM59 10h1v1h-1zM60 10h1v1h-1zM61 10h1v1h-1zM68 10h1v1h-1zM69 10h1v1h-1zM72 10h1v1h-1zM73 10h1v1h-1zM74 10h1v1h-1zM75 10h1v1h-1zM82 10h1v1h-1zM83 10h1v1h-1zM84 10h1v1h-1zM85 10h1v1h-1zM86 10h1v1h-1zM87 10h1v1h-1zM32 11h1v1h-1zM33 11h1v1h-1zM34 11h1v1h-1zM35 11h1v1h-1zM36 11h1v1h-1zM37 11h1v1h-1zM58 11h1v1h-1zM59 11h1v1h-1zM60 11h1v1h-1zM61 11h1v1h-1zM68 11h1v1h-1zM69 11h1v1h-1zM72 11h1v1h-1zM73 11h1v1h-1zM74 11h1v1h-1zM75 11h1v1h-1zM82 11h1v1h-1zM83 11h1v1h-1zM84 11h1v1h-1zM85 11h1v1h-1zM86 11h1v1h-1zM87 11h1v1h-1zM28 12h1v1h-1zM29 12h1v1h-1zM30 12h1v1h-1zM31 12h1v1h-1zM36 12h1v1h-1zM37 12h1v1h-1zM60 12h1v1h-1zM61 12h1v1h-1zM66 12h1v1h-1zM67 12h1v1h-1zM82 12h1v1h-1zM83 12h1v1h-1zM86 12h1v1h-1zM87 12h1v1h-1zM88 12h1v1h-1zM89 12h1v1h-1zM90 12h1v1h-1zM91 12h1v1h-1zM28 13h1v1h-1zM29 13h1v1h-1zM30 13h1v1h-1zM31 13h1v1h-1zM36 13h1v1h-1zM37 13h1v1h-1zM60 13h1v1h-1zM61 13h1v1h-1zM66 13h1v1h-1zM67 13h1v1h-1zM82 13h1v1h-1zM83 13h1v1h-1zM86 13h1v1h-1zM87 13h1v1h-1zM88 13h1v1h-1zM89 13h1v1h-1zM90 13h1v1h-1zM91 13h1v1h-1zM26 14h1v1h-1zM27 14h1v1h-1zM58 14h1v1h-1zM59 14h1v1h-1zM78 14h1v1h-1zM79 14h1v1h-1zM80 14h1v1h-1zM81 14h1v1h-1zM82 14h1v1h-1zM83 14h1v1h-1zM84 14h1v1h-1zM85 14h1v1h-1zM86 14h1v1h-1zM87 14h1v1h-1zM88 14h1v1h-1zM89 14h1v1h-1zM90 14h1v1h-1zM91 14h1v1h-1zM92 14h1v1h-1zM93 14h1v1h-1zM26 15h1v1h-1zM27 15h1v1h-1zM58 15h1v1h-1zM59 15h1v1h-1zM78 15h1v1h-1zM79 15h1v1h-1zM80 15h1v1h-1zM81 15h1v1h-1zM82 15h1v1h-1zM83 15h1v1h-1zM84 15h1v1h-1zM85 15h1v1h-1zM86 15h1v1h-1zM87 15h1v1h-1zM88 15h1v1h-1zM89 15h1v1h-1zM90 15h1v1h-1zM91 15h1v1h-1zM92 15h1v1h-1zM93 15h1v1h-1zM24 16h1v1h-1zM25 16h1v1h-1zM66 16h1v1h-1zM67 16h1v1h-1zM78 16h1v1h-1zM79 16h1v1h-1zM80 16h1v1h-1zM81 16h1v1h-1zM82 16h1v1h-1zM83 16h1v1h-1zM84 16h1v1h-1zM85 16h1v1h-1zM86 16h1v1h-1zM87 16h1v1h-1zM88 16h1v1h-1zM89 16h1v1h-1zM90 16h1v1h-1zM91 16h1v1h-1zM92 16h1v1h-1zM93 16h1v1h-1zM94 16h1v1h-1zM95 16h1v1h-1zM24 17h1v1h-1zM25 17h1v1h-1zM66 17h1v1h-1zM67 17h1v1h-1zM78 17h1v1h-1zM79 17h1v1h-1zM80 17h1v1h-1zM81 17h1v1h-1zM82 17h1v1h-1zM83 17h1v1h-1zM84 17h1v1h-1zM85 17h1v1h-1zM86 17h1v1h-1zM87 17h1v1h-1zM88 17h1v1h-1zM89 17h1v1h-1zM90 17h1v1h-1zM91 17h1v1h-1zM92 17h1v1h-1zM93 17h1v1h-1zM94 17h1v1h-1zM95 17h1v1h-1zM20 18h1v1h-1zM21 18h1v1h-1zM22 18h1v1h-1zM23 18h1v1h-1zM60 18h1v1h-1zM61 18h1v1h-1zM74 18h1v1h-1zM75 18h1v1h-1zM80 18h1v1h-1zM81 18h1v1h-1zM82 18h1v1h-1zM83 18h1v1h-1zM84 18h1v1h-1zM85 18h1v1h-1zM86 18h1v1h-1zM87 18h1v1h-1zM88 18h1v1h-1zM89 18h1v1h-1zM90 18h1v1h-1zM91 18h1v1h-1zM92 18h1v1h-1zM93 18h1v1h-1zM94 18h1v1h-1zM95 18h1v1h-1zM96 18h1v1h-1zM97 18h1v1h-1zM98 18h1v1h-1zM99 18h1v1h-1zM20 19h1v1h-1zM21 19h1v1h-1zM22 19h1v1h-1zM23 19h1v1h-1zM60 19h1v1h-1zM61 19h1v1h-1zM74 19h1v1h-1zM75 19h1v1h-1zM80 19h1v1h-1zM81 19h1v1h-1zM82 19h1v1h-1zM83 19h1v1h-1zM84 19h1v1h-1zM85 19h1v1h-1zM86 19h1v1h-1zM87 19h1v1h-1zM88 19h1v1h-1zM89 19h1v1h-1zM90 19h1v1h-1zM91 19h1v1h-1zM92 19h1v1h-1zM93 19h1v1h-1zM94 19h1v1h-1zM95 19h1v1h-1zM96 19h1v1h-1zM97 19h1v1h-1zM98 19h1v1h-1zM99 19h1v1h-1zM18 20h1v1h-1zM19 20h1v1h-1zM40 20h1v1h-1zM41 20h1v1h-1zM66 20h1v1h-1zM67 20h1v1h-1zM82 20h1v1h-1zM83 20h1v1h-1zM84 20h1v1h-1zM85 20h1v1h-1zM86 20h1v1h-1zM87 20h1v1h-1zM88 20h1v1h-1zM89 20h1v1h-1zM90 20h1v1h-1zM91 20h1v1h-1zM92 20h1v1h-1zM93 20h1v1h-1zM94 20h1v1h-1zM95 20h1v1h-1zM96 20h1v1h-1zM97 20h1v1h-1zM98 20h1v1h-1zM99 20h1v1h-1zM100 20h1v1h-1zM101 20h1v1h-1zM18 21h1v1h-1zM19 21h1v1h-1zM40 21h1v1h-1zM41 21h1v1h-1zM66 21h1v1h-1zM67 21h1v1h-1zM82 21h1v1h-1zM83 21h1v1h-1zM84 21h1v1h-1zM85 21h1v1h-1zM86 21h1v1h-1zM87 21h1v1h-1zM88 21h1v1h-1zM89 21h1v1h-1zM90 21h1v1h-1zM91 21h1v1h-1zM92 21h1v1h-1zM93 21h1v1h-1zM94 21h1v1h-1zM95 21h1v1h-1zM96 21h1v1h-1zM97 21h1v1h-1zM98 21h1v1h-1zM99 21h1v1h-1zM100 21h1v1h-1zM101 21h1v1h-1zM16 22h1v1h-1zM17 22h1v1h-1zM82 22h1v1h-1zM83 22h1v1h-1zM84 22h1v1h-1zM85 22h1v1h-1zM88 22h1v1h-1zM89 22h1v1h-1zM90 22h1v1h-1zM91 22h1v1h-1zM92 22h1v1h-1zM93 22h1v1h-1zM94 22h1v1h-1zM95 22h1v1h-1zM96 22h1v1h-1zM97 22h1v1h-1zM98 22h1v1h-1zM99 22h1v1h-1zM100 22h1v1h-1zM101 22h1v1h-1zM102 22h1v1h-1zM103 22h1v1h-1zM16 23h1v1h-1zM17 23h1v1h-1zM82 23h1v1h-1zM83 23h1v1h-1zM84 23h1v1h-1zM85 23h1v1h-1zM88 23h1v1h-1zM89 23h1v1h-1zM90 23h1v1h-1zM91 23h1v1h-1zM92 23h1v1h-1zM93 23h1v1h-1zM94 23h1v1h-1zM95 23h1v1h-1zM96 23h1v1h-1zM97 23h1v1h-1zM98 23h1v1h-1zM99 23h1v1h-1zM100 23h1v1h-1zM101 23h1v1h-1zM102 23h1v1h-1zM103 23h1v1h-1zM16 24h1v1h-1zM17 24h1v1h-1zM24 24h1v1h-1zM25 24h1v1h-1zM78 24h1v1h-1zM79 24h1v1h-1zM80 24h1v1h-1zM81 24h1v1h-1zM82 24h1v1h-1zM83 24h1v1h-1zM88 24h1v1h-1zM89 24h1v1h-1zM90 24h1v1h-1zM91 24h1v1h-1zM92 24h1v1h-1zM93 24h1v1h-1zM94 24h1v1h-1zM95 24h1v1h-1zM96 24h1v1h-1zM97 24h1v1h-1zM98 24h1v1h-1zM99 24h1v1h-1zM100 24h1v1h-1zM101 24h1v1h-1zM102 24h1v1h-1zM103 24h1v1h-1zM16 25h1v1h-1zM17 25h1v1h-1zM24 25h1v1h-1zM25 25h1v1h-1zM78 25h1v1h-1zM79 25h1v1h-1zM80 25h1v1h-1zM81 25h1v1h-1zM82 25h1v1h-1zM83 25h1v1h-1zM88 25h1v1h-1zM89 25h1v1h-1zM90 25h1v1h-1zM91 25h1v1h-1zM92 25h1v1h-1zM93 25h1v1h-1zM94 25h1v1h-1zM95 25h1v1h-1zM96 25h1v1h-1zM97 25h1v1h-1zM98 25h1v1h-1zM99 25h1v1h-1zM100 25h1v1h-1zM101 25h1v1h-1zM102 25h1v1h-1zM103 25h1v1h-1zM14 26h1v1h-1zM15 26h1v1h-1zM26 26h1v1h-1zM27 26h1v1h-1zM74 26h1v1h-1zM75 26h1v1h-1zM76 26h1v1h-1zM77 26h1v1h-1zM80 26h1v1h-1zM81 26h1v1h-1zM82 26h1v1h-1zM83 26h1v1h-1zM84 26h1v1h-1zM85 26h1v1h-1zM86 26h1v1h-1zM87 26h1v1h-1zM90 26h1v1h-1zM91 26h1v1h-1zM92 26h1v1h-1zM93 26h1v1h-1zM98 26h1v1h-1zM99 26h1v1h-1zM102 26h1v1h-1zM103 26h1v1h-1zM104 26h1v1h-1zM105 26h1v1h-1zM14 27h1v1h-1zM15 27h1v1h-1zM26 27h1v1h-1zM27 27h1v1h-1zM74 27h1v1h-1zM75 27h1v1h-1zM76 27h1v1h-1zM77 27h1v1h-1zM80 27h1v1h-1zM81 27h1v1h-1zM82 27h1v1h-1zM83 27h1v1h-1zM84 27h1v1h-1zM85 27h1v1h-1zM86 27h1v1h-1zM87 27h1v1h-1zM90 27h1v1h-1zM91 27h1v1h-1zM92 27h1v1h-1zM93 27h1v1h-1zM98 27h1v1h-1zM99 27h1v1h-1zM102 27h1v1h-1zM103 27h1v1h-1zM104 27h1v1h-1zM105 27h1v1h-1zM12 28h1v1h-1zM13 28h1v1h-1zM14 28h1v1h-1zM15 28h1v1h-1zM22 28h1v1h-1zM23 28h1v1h-1zM54 28h1v1h-1zM55 28h1v1h-1zM82 28h1v1h-1zM83 28h1v1h-1zM84 28h1v1h-1zM85 28h1v1h-1zM86 28h1v1h-1zM87 28h1v1h-1zM88 28h1v1h-1zM89 28h1v1h-1zM92 28h1v1h-1zM93 28h1v1h-1zM96 28h1v1h-1zM97 28h1v1h-1zM104 28h1v1h-1zM105 28h1v1h-1zM106 28h1v1h-1zM107 28h1v1h-1zM12 29h1v1h-1zM13 29h1v1h-1zM14 29h1v1h-1zM15 29h1v1h-1zM22 29h1v1h-1zM23 29h1v1h-1zM54 29h1v1h-1zM55 29h1v1h-1zM82 29h1v1h-1zM83 29h1v1h-1zM84 29h1v1h-1zM85 29h1v1h-1zM86 29h1v1h-1zM87 29h1v1h-1zM88 29h1v1h-1zM89 29h1v1h-1zM92 29h1v1h-1zM93 29h1v1h-1zM96 29h1v1h-1zM97 29h1v1h-1zM104 29h1v1h-1zM105 29h1v1h-1zM106 29h1v1h-1zM107 29h1v1h-1zM10 30h1v1h-1zM11 30h1v1h-1zM14 30h1v1h-1zM15 30h1v1h-1zM32 30h1v1h-1zM33 30h1v1h-1zM42 30h1v1h-1zM43 30h1v1h-1zM84 30h1v1h-1zM85 30h1v1h-1zM92 30h1v1h-1zM93 30h1v1h-1zM94 30h1v1h-1zM95 30h1v1h-1zM108 30h1v1h-1zM109 30h1v1h-1zM10 31h1v1h-1zM11 31h1v1h-1zM14 31h1v1h-1zM15 31h1v1h-1zM32 31h1v1h-1zM33 31h1v1h-1zM42 31h1v1h-1zM43 31h1v1h-1zM84 31h1v1h-1zM85 31h1v1h-1zM92 31h1v1h-1zM93 31h1v1h-1zM94 31h1v1h-1zM95 31h1v1h-1zM108 31h1v1h-1zM109 31h1v1h-1zM10 32h1v1h-1zM11 32h1v1h-1zM50 32h1v1h-1zM51 32h1v1h-1zM86 32h1v1h-1zM87 32h1v1h-1zM94 32h1v1h-1zM95 32h1v1h-1zM102 32h1v1h-1zM103 32h1v1h-1zM106 32h1v1h-1zM107 32h1v1h-1zM108 32h1v1h-1zM109 32h1v1h-1zM10 33h1v1h-1zM11 33h1v1h-1zM50 33h1v1h-1zM51 33h1v1h-1zM86 33h1v1h-1zM87 33h1v1h-1zM94 33h1v1h-1zM95 33h1v1h-1zM102 33h1v1h-1zM103 33h1v1h-1zM106 33h1v1h-1zM107 33h1v1h-1zM108 33h1v1h-1zM109 33h1v1h-1zM8 34h1v1H8zM9 34h1v1H9zM12 34h1v1h-1zM13 34h1v1h-1zM36 34h1v1h-1zM37 34h1v1h-1zM42 34h1v1h-1zM43 34h1v1h-1zM48 34h1v1h-1zM49 34h1v1h-1zM104 34h1v1h-1zM105 34h1v1h-1zM110 34h1v1h-1zM111 34h1v1h-1zM8 35h1v1H8zM9 35h1v1H9zM12 35h1v1h-1zM13 35h1v1h-1zM36 35h1v1h-1zM37 35h1v1h-1zM42 35h1v1h-1zM43 35h1v1h-1zM48 35h1v1h-1zM49 35h1v1h-1zM104 35h1v1h-1zM105 35h1v1h-1zM110 35h1v1h-1zM111 35h1v1h-1zM8 36h1v1H8zM9 36h1v1H9zM10 36h1v1h-1zM11 36h1v1h-1zM14 36h1v1h-1zM15 36h1v1h-1zM38 36h1v1h-1zM39 36h1v1h-1zM46 36h1v1h-1zM47 36h1v1h-1zM70 36h1v1h-1zM71 36h1v1h-1zM106 36h1v1h-1zM107 36h1v1h-1zM108 36h1v1h-1zM109 36h1v1h-1zM110 36h1v1h-1zM111 36h1v1h-1zM8 37h1v1H8zM9 37h1v1H9zM10 37h1v1h-1zM11 37h1v1h-1zM14 37h1v1h-1zM15 37h1v1h-1zM38 37h1v1h-1zM39 37h1v1h-1zM46 37h1v1h-1zM47 37h1v1h-1zM70 37h1v1h-1zM71 37h1v1h-1zM106 37h1v1h-1zM107 37h1v1h-1zM108 37h1v1h-1zM109 37h1v1h-1zM110 37h1v1h-1zM111 37h1v1h-1zM6 38h1v1H6zM7 38h1v1H7zM12 38h1v1h-1zM13 38h1v1h-1zM16 38h1v1h-1zM17 38h1v1h-1zM40 38h1v1h-1zM41 38h1v1h-1zM42 38h1v1h-1zM43 38h1v1h-1zM44 38h1v1h-1zM45 38h1v1h-1zM94 38h1v1h-1zM95 38h1v1h-1zM110 38h1v1h-1zM111 38h1v1h-1zM112 38h1v1h-1zM113 38h1v1h-1zM6 39h1v1H6zM7 39h1v1H7zM12 39h1v1h-1zM13 39h1v1h-1zM16 39h1v1h-1zM17 39h1v1h-1zM40 39h1v1h-1zM41 39h1v1h-1zM42 39h1v1h-1zM43 39h1v1h-1zM44 39h1v1h-1zM45 39h1v1h-1zM94 39h1v1h-1zM95 39h1v1h-1zM110 39h1v1h-1zM111 39h1v1h-1zM112 39h1v1h-1zM113 39h1v1h-1zM6 40h1v1H6zM7 40h1v1H7zM28 40h1v1h-1zM29 40h1v1h-1zM32 40h1v1h-1zM33 40h1v1h-1zM38 40h1v1h-1zM39 40h1v1h-1zM40 40h1v1h-1zM41 40h1v1h-1zM42 40h1v1h-1zM43 40h1v1h-1zM46 40h1v1h-1zM47 40h1v1h-1zM52 40h1v1h-1zM53 40h1v1h-1zM112 40h1v1h-1zM113 40h1v1h-1zM6 41h1v1H6zM7 41h1v1H7zM28 41h1v1h-1zM29 41h1v1h-1zM32 41h1v1h-1zM33 41h1v1h-1zM38 41h1v1h-1zM39 41h1v1h-1zM40 41h1v1h-1zM41 41h1v1h-1zM42 41h1v1h-1zM43 41h1v1h-1zM46 41h1v1h-1zM47 41h1v1h-1zM52 41h1v1h-1zM53 41h1v1h-1zM112 41h1v1h-1zM113 41h1v1h-1zM4 42h1v1H4zM5 42h1v1H5zM40 42h1v1h-1zM41 42h1v1h-1zM44 42h1v1h-1zM45 42h1v1h-1zM78 42h1v1h-1zM79 42h1v1h-1zM86 42h1v1h-1zM87 42h1v1h-1zM90 42h1v1h-1zM91 42h1v1h-1zM94 42h1v1h-1zM95 42h1v1h-1zM102 42h1v1h-1zM103 42h1v1h-1zM106 42h1v1h-1zM107 42h1v1h-1zM110 42h1v1h-1zM111 42h1v1h-1zM114 42h1v1h-1zM115 42h1v1h-1zM4 43h1v1H4zM5 43h1v1H5zM40 43h1v1h-1zM41 43h1v1h-1zM44 43h1v1h-1zM45 43h1v1h-1zM78 43h1v1h-1zM79 43h1v1h-1zM86 43h1v1h-1zM87 43h1v1h-1zM90 43h1v1h-1zM91 43h1v1h-1zM94 43h1v1h-1zM95 43h1v1h-1zM102 43h1v1h-1zM103 43h1v1h-1zM106 43h1v1h-1zM107 43h1v1h-1zM110 43h1v1h-1zM111 43h1v1h-1zM114 43h1v1h-1zM115 43h1v1h-1zM4 44h1v1H4zM5 44h1v1H5zM38 44h1v1h-1zM39 44h1v1h-1zM46 44h1v1h-1zM47 44h1v1h-1zM104 44h1v1h-1zM105 44h1v1h-1zM114 44h1v1h-1zM115 44h1v1h-1zM4 45h1v1H4zM5 45h1v1H5zM38 45h1v1h-1zM39 45h1v1h-1zM46 45h1v1h-1zM47 45h1v1h-1zM104 45h1v1h-1zM105 45h1v1h-1zM114 45h1v1h-1zM115 45h1v1h-1zM4 46h1v1H4zM5 46h1v1H5zM20 46h1v1h-1zM21 46h1v1h-1zM36 46h1v1h-1zM37 46h1v1h-1zM48 46h1v1h-1zM49 46h1v1h-1zM82 46h1v1h-1zM83 46h1v1h-1zM90 46h1v1h-1zM91 46h1v1h-1zM94 46h1v1h-1zM95 46h1v1h-1zM98 46h1v1h-1zM99 46h1v1h-1zM106 46h1v1h-1zM107 46h1v1h-1zM112 46h1v1h-1zM113 46h1v1h-1zM114 46h1v1h-1zM115 46h1v1h-1zM4 47h1v1H4zM5 47h1v1H5zM20 47h1v1h-1zM21 47h1v1h-1zM36 47h1v1h-1zM37 47h1v1h-1zM48 47h1v1h-1zM49 47h1v1h-1zM82 47h1v1h-1zM83 47h1v1h-1zM90 47h1v1h-1zM91 47h1v1h-1zM94 47h1v1h-1zM95 47h1v1h-1zM98 47h1v1h-1zM99 47h1v1h-1zM106 47h1v1h-1zM107 47h1v1h-1zM112 47h1v1h-1zM113 47h1v1h-1zM114 47h1v1h-1zM115 47h1v1h-1zM4 48h1v1H4zM5 48h1v1H5zM34 48h1v1h-1zM35 48h1v1h-1zM50 48h1v1h-1zM51 48h1v1h-1zM96 48h1v1h-1zM97 48h1v1h-1zM114 48h1v1h-1zM115 48h1v1h-1zM4 49h1v1H4zM5 49h1v1H5zM34 49h1v1h-1zM35 49h1v1h-1zM50 49h1v1h-1zM51 49h1v1h-1zM96 49h1v1h-1zM97 49h1v1h-1zM114 49h1v1h-1zM115 49h1v1h-1zM2 50h1v1H2zM3 50h1v1H3zM70 50h1v1h-1zM71 50h1v1h-1zM74 50h1v1h-1zM75 50h1v1h-1zM78 50h1v1h-1zM79 50h1v1h-1zM82 50h1v1h-1zM83 50h1v1h-1zM86 50h1v1h-1zM87 50h1v1h-1zM90 50h1v1h-1zM91 50h1v1h-1zM94 50h1v1h-1zM95 50h1v1h-1zM98 50h1v1h-1zM99 50h1v1h-1zM102 50h1v1h-1zM103 50h1v1h-1zM106 50h1v1h-1zM107 50h1v1h-1zM110 50h1v1h-1zM111 50h1v1h-1zM116 50h1v1h-1zM117 50h1v1h-1zM2 51h1v1H2zM3 51h1v1H3zM70 51h1v1h-1zM71 51h1v1h-1zM74 51h1v1h-1zM75 51h1v1h-1zM78 51h1v1h-1zM79 51h1v1h-1zM82 51h1v1h-1zM83 51h1v1h-1zM86 51h1v1h-1zM87 51h1v1h-1zM90 51h1v1h-1zM91 51h1v1h-1zM94 51h1v1h-1zM95 51h1v1h-1zM98 51h1v1h-1zM99 51h1v1h-1zM102 51h1v1h-1zM103 51h1v1h-1zM106 51h1v1h-1zM107 51h1v1h-1zM110 51h1v1h-1zM111 51h1v1h-1zM116 51h1v1h-1zM117 51h1v1h-1zM2 52h1v1H2zM3 52h1v1H3zM26 52h1v1h-1zM27 52h1v1h-1zM32 52h1v1h-1zM33 52h1v1h-1zM52 52h1v1h-1zM53 52h1v1h-1zM84 52h1v1h-1zM85 52h1v1h-1zM92 52h1v1h-1zM93 52h1v1h-1zM100 52h1v1h-1zM101 52h1v1h-1zM112 52h1v1h-1zM113 52h1v1h-1zM116 52h1v1h-1zM117 52h1v1h-1zM2 53h1v1H2zM3 53h1v1H3zM26 53h1v1h-1zM27 53h1v1h-1zM32 53h1v1h-1zM33 53h1v1h-1zM52 53h1v1h-1zM53 53h1v1h-1zM84 53h1v1h-1zM85 53h1v1h-1zM92 53h1v1h-1zM93 53h1v1h-1zM100 53h1v1h-1zM101 53h1v1h-1zM112 53h1v1h-1zM113 53h1v1h-1zM116 53h1v1h-1zM117 53h1v1h-1zM2 54h1v1H2zM3 54h1v1H3zM16 54h1v1h-1zM17 54h1v1h-1zM24 54h1v1h-1zM25 54h1v1h-1zM66 54h1v1h-1zM67 54h1v1h-1zM70 54h1v1h-1zM71 54h1v1h-1zM74 54h1v1h-1zM75 54h1v1h-1zM78 54h1v1h-1zM79 54h1v1h-1zM82 54h1v1h-1zM83 54h1v1h-1zM86 54h1v1h-1zM87 54h1v1h-1zM90 54h1v1h-1zM91 54h1v1h-1zM94 54h1v1h-1zM95 54h1v1h-1zM98 54h1v1h-1zM99 54h1v1h-1zM102 54h1v1h-1zM103 54h1v1h-1zM106 54h1v1h-1zM107 54h1v1h-1zM110 54h1v1h-1zM111 54h1v1h-1zM112 54h1v1h-1zM113 54h1v1h-1zM114 54h1v1h-1zM115 54h1v1h-1zM116 54h1v1h-1zM117 54h1v1h-1zM2 55h1v1H2zM3 55h1v1H3zM16 55h1v1h-1zM17 55h1v1h-1zM24 55h1v1h-1zM25 55h1v1h-1zM66 55h1v1h-1zM67 55h1v1h-1zM70 55h1v1h-1zM71 55h1v1h-1zM74 55h1v1h-1zM75 55h1v1h-1zM78 55h1v1h-1zM79 55h1v1h-1zM82 55h1v1h-1zM83 55h1v1h-1zM86 55h1v1h-1zM87 55h1v1h-1zM90 55h1v1h-1zM91 55h1v1h-1zM94 55h1v1h-1zM95 55h1v1h-1zM98 55h1v1h-1zM99 55h1v1h-1zM102 55h1v1h-1zM103 55h1v1h-1zM106 55h1v1h-1zM107 55h1v1h-1zM110 55h1v1h-1zM111 55h1v1h-1zM112 55h1v1h-1zM113 55h1v1h-1zM114 55h1v1h-1zM115 55h1v1h-1zM116 55h1v1h-1zM117 55h1v1h-1zM2 56h1v1H2zM3 56h1v1H3zM8 56h1v1H8zM9 56h1v1H9zM10 56h1v1h-1zM11 56h1v1h-1zM12 56h1v1h-1zM13 56h1v1h-1zM72 56h1v1h-1zM73 56h1v1h-1zM80 56h1v1h-1zM81 56h1v1h-1zM84 56h1v1h-1zM85 56h1v1h-1zM88 56h1v1h-1zM89 56h1v1h-1zM92 56h1v1h-1zM93 56h1v1h-1zM96 56h1v1h-1zM97 56h1v1h-1zM100 56h1v1h-1zM101 56h1v1h-1zM104 56h1v1h-1zM105 56h1v1h-1zM112 56h1v1h-1zM113 56h1v1h-1zM116 56h1v1h-1zM117 56h1v1h-1zM2 57h1v1H2zM3 57h1v1H3zM8 57h1v1H8zM9 57h1v1H9zM10 57h1v1h-1zM11 57h1v1h-1zM12 57h1v1h-1zM13 57h1v1h-1zM72 57h1v1h-1zM73 57h1v1h-1zM80 57h1v1h-1zM81 57h1v1h-1zM84 57h1v1h-1zM85 57h1v1h-1zM88 57h1v1h-1zM89 57h1v1h-1zM92 57h1v1h-1zM93 57h1v1h-1zM96 57h1v1h-1zM97 57h1v1h-1zM100 57h1v1h-1zM101 57h1v1h-1zM104 57h1v1h-1zM105 57h1v1h-1zM112 57h1v1h-1zM113 57h1v1h-1zM116 57h1v1h-1zM117 57h1v1h-1zM2 58h1v1H2zM3 58h1v1H3zM4 58h1v1H4zM5 58h1v1H5zM6 58h1v1H6zM7 58h1v1H7zM10 58h1v1h-1zM11 58h1v1h-1zM26 58h1v1h-1zM27 58h1v1h-1zM34 58h1v1h-1zM35 58h1v1h-1zM40 58h1v1h-1zM41 58h1v1h-1zM62 58h1v1h-1zM63 58h1v1h-1zM66 58h1v1h-1zM67 58h1v1h-1zM70 58h1v1h-1zM71 58h1v1h-1zM74 58h1v1h-1zM75 58h1v1h-1zM78 58h1v1h-1zM79 58h1v1h-1zM86 58h1v1h-1zM87 58h1v1h-1zM90 58h1v1h-1zM91 58h1v1h-1zM94 58h1v1h-1zM95 58h1v1h-1zM98 58h1v1h-1zM99 58h1v1h-1zM102 58h1v1h-1zM103 58h1v1h-1zM106 58h1v1h-1zM107 58h1v1h-1zM110 58h1v1h-1zM111 58h1v1h-1zM112 58h1v1h-1zM113 58h1v1h-1zM114 58h1v1h-1zM115 58h1v1h-1zM116 58h1v1h-1zM117 58h1v1h-1zM2 59h1v1H2zM3 59h1v1H3zM4 59h1v1H4zM5 59h1v1H5zM6 59h1v1H6zM7 59h1v1H7zM10 59h1v1h-1zM11 59h1v1h-1zM26 59h1v1h-1zM27 59h1v1h-1zM34 59h1v1h-1zM35 59h1v1h-1zM40 59h1v1h-1zM41 59h1v1h-1zM62 59h1v1h-1zM63 59h1v1h-1zM66 59h1v1h-1zM67 59h1v1h-1zM70 59h1v1h-1zM71 59h1v1h-1zM74 59h1v1h-1zM75 59h1v1h-1zM78 59h1v1h-1zM79 59h1v1h-1zM86 59h1v1h-1zM87 59h1v1h-1zM90 59h1v1h-1zM91 59h1v1h-1zM94 59h1v1h-1zM95 59h1v1h-1zM98 59h1v1h-1zM99 59h1v1h-1zM102 59h1v1h-1zM103 59h1v1h-1zM106 59h1v1h-1zM107 59h1v1h-1zM110 59h1v1h-1zM111 59h1v1h-1zM112 59h1v1h-1zM113 59h1v1h-1zM114 59h1v1h-1zM115 59h1v1h-1zM116 59h1v1h-1zM117 59h1v1h-1zM2 60h1v1H2zM3 60h1v1H3zM8 60h1v1H8zM9 60h1v1H9zM12 60h1v1h-1zM13 60h1v1h-1zM16 60h1v1h-1zM17 60h1v1h-1zM30 60h1v1h-1zM31 60h1v1h-1zM36 60h1v1h-1zM37 60h1v1h-1zM40 60h1v1h-1zM41 60h1v1h-1zM76 60h1v1h-1zM77 60h1v1h-1zM78 60h1v1h-1zM79 60h1v1h-1zM84 60h1v1h-1zM85 60h1v1h-1zM88 60h1v1h-1zM89 60h1v1h-1zM92 60h1v1h-1zM93 60h1v1h-1zM96 60h1v1h-1zM97 60h1v1h-1zM100 60h1v1h-1zM101 60h1v1h-1zM108 60h1v1h-1zM109 60h1v1h-1zM116 60h1v1h-1zM117 60h1v1h-1zM2 61h1v1H2zM3 61h1v1H3zM8 61h1v1H8zM9 61h1v1H9zM12 61h1v1h-1zM13 61h1v1h-1zM16 61h1v1h-1zM17 61h1v1h-1zM30 61h1v1h-1zM31 61h1v1h-1zM36 61h1v1h-1zM37 61h1v1h-1zM40 61h1v1h-1zM41 61h1v1h-1zM76 61h1v1h-1zM77 61h1v1h-1zM78 61h1v1h-1zM79 61h1v1h-1zM84 61h1v1h-1zM85 61h1v1h-1zM88 61h1v1h-1zM89 61h1v1h-1zM92 61h1v1h-1zM93 61h1v1h-1zM96 61h1v1h-1zM97 61h1v1h-1zM100 61h1v1h-1zM101 61h1v1h-1zM108 61h1v1h-1zM109 61h1v1h-1zM116 61h1v1h-1zM117 61h1v1h-1zM2 62h1v1H2zM3 62h1v1H3zM4 62h1v1H4zM5 62h1v1H5zM6 62h1v1H6zM7 62h1v1H7zM8 62h1v1H8zM9 62h1v1H9zM12 62h1v1h-1zM13 62h1v1h-1zM28 62h1v1h-1zM29 62h1v1h-1zM34 62h1v1h-1zM35 62h1v1h-1zM36 62h1v1h-1zM37 62h1v1h-1zM38 62h1v1h-1zM39 62h1v1h-1zM40 62h1v1h-1zM41 62h1v1h-1zM42 62h1v1h-1zM43 62h1v1h-1zM48 62h1v1h-1zM49 62h1v1h-1zM66 62h1v1h-1zM67 62h1v1h-1zM70 62h1v1h-1zM71 62h1v1h-1zM74 62h1v1h-1zM75 62h1v1h-1zM76 62h1v1h-1zM77 62h1v1h-1zM78 62h1v1h-1zM79 62h1v1h-1zM82 62h1v1h-1zM83 62h1v1h-1zM86 62h1v1h-1zM87 62h1v1h-1zM90 62h1v1h-1zM91 62h1v1h-1zM92 62h1v1h-1zM93 62h1v1h-1zM94 62h1v1h-1zM95 62h1v1h-1zM98 62h1v1h-1zM99 62h1v1h-1zM102 62h1v1h-1zM103 62h1v1h-1zM106 62h1v1h-1zM107 62h1v1h-1zM110 62h1v1h-1zM111 62h1v1h-1zM112 62h1v1h-1zM113 62h1v1h-1zM114 62h1v1h-1zM115 62h1v1h-1zM116 62h1v1h-1zM117 62h1v1h-1zM2 63h1v1H2zM3 63h1v1H3zM4 63h1v1H4zM5 63h1v1H5zM6 63h1v1H6zM7 63h1v1H7zM8 63h1v1H8zM9 63h1v1H9zM12 63h1v1h-1zM13 63h1v1h-1zM28 63h1v1h-1zM29 63h1v1h-1zM34 63h1v1h-1zM35 63h1v1h-1zM36 63h1v1h-1zM37 63h1v1h-1zM38 63h1v1h-1zM39 63h1v1h-1zM40 63h1v1h-1zM41 63h1v1h-1zM42 63h1v1h-1zM43 63h1v1h-1zM48 63h1v1h-1zM49 63h1v1h-1zM66 63h1v1h-1zM67 63h1v1h-1zM70 63h1v1h-1zM71 63h1v1h-1zM74 63h1v1h-1zM75 63h1v1h-1zM76 63h1v1h-1zM77 63h1v1h-1zM78 63h1v1h-1zM79 63h1v1h-1zM82 63h1v1h-1zM83 63h1v1h-1zM86 63h1v1h-1zM87 63h1v1h-1zM90 63h1v1h-1zM91 63h1v1h-1zM92 63h1v1h-1zM93 63h1v1h-1zM94 63h1v1h-1zM95 63h1v1h-1zM98 63h1v1h-1zM99 63h1v1h-1zM102 63h1v1h-1zM103 63h1v1h-1zM106 63h1v1h-1zM107 63h1v1h-1zM110 63h1v1h-1zM111 63h1v1h-1zM112 63h1v1h-1zM113 63h1v1h-1zM114 63h1v1h-1zM115 63h1v1h-1zM116 63h1v1h-1zM117 63h1v1h-1zM2 64h1v1H2zM3 64h1v1H3zM4 64h1v1H4zM5 64h1v1H5zM6 64h1v1H6zM7 64h1v1H7zM10 64h1v1h-1zM11 64h1v1h-1zM18 64h1v1h-1zM19 64h1v1h-1zM20 64h1v1h-1zM21 64h1v1h-1zM26 64h1v1h-1zM27 64h1v1h-1zM34 64h1v1h-1zM35 64h1v1h-1zM36 64h1v1h-1zM37 64h1v1h-1zM38 64h1v1h-1zM39 64h1v1h-1zM40 64h1v1h-1zM41 64h1v1h-1zM42 64h1v1h-1zM43 64h1v1h-1zM74 64h1v1h-1zM75 64h1v1h-1zM78 64h1v1h-1zM79 64h1v1h-1zM80 64h1v1h-1zM81 64h1v1h-1zM84 64h1v1h-1zM85 64h1v1h-1zM88 64h1v1h-1zM89 64h1v1h-1zM92 64h1v1h-1zM93 64h1v1h-1zM96 64h1v1h-1zM97 64h1v1h-1zM100 64h1v1h-1zM101 64h1v1h-1zM104 64h1v1h-1zM105 64h1v1h-1zM108 64h1v1h-1zM109 64h1v1h-1zM110 64h1v1h-1zM111 64h1v1h-1zM112 64h1v1h-1zM113 64h1v1h-1zM114 64h1v1h-1zM115 64h1v1h-1zM116 64h1v1h-1zM117 64h1v1h-1zM2 65h1v1H2zM3 65h1v1H3zM4 65h1v1H4zM5 65h1v1H5zM6 65h1v1H6zM7 65h1v1H7zM10 65h1v1h-1zM11 65h1v1h-1zM18 65h1v1h-1zM19 65h1v1h-1zM20 65h1v1h-1zM21 65h1v1h-1zM26 65h1v1h-1zM27 65h1v1h-1zM34 65h1v1h-1zM35 65h1v1h-1zM36 65h1v1h-1zM37 65h1v1h-1zM38 65h1v1h-1zM39 65h1v1h-1zM40 65h1v1h-1zM41 65h1v1h-1zM42 65h1v1h-1zM43 65h1v1h-1zM74 65h1v1h-1zM75 65h1v1h-1zM78 65h1v1h-1zM79 65h1v1h-1zM80 65h1v1h-1zM81 65h1v1h-1zM84 65h1v1h-1zM85 65h1v1h-1zM88 65h1v1h-1zM89 65h1v1h-1zM92 65h1v1h-1zM93 65h1v1h-1zM96 65h1v1h-1zM97 65h1v1h-1zM100 65h1v1h-1zM101 65h1v1h-1zM104 65h1v1h-1zM105 65h1v1h-1zM108 65h1v1h-1zM109 65h1v1h-1zM110 65h1v1h-1zM111 65h1v1h-1zM112 65h1v1h-1zM113 65h1v1h-1zM114 65h1v1h-1zM115 65h1v1h-1zM116 65h1v1h-1zM117 65h1v1h-1zM2 66h1v1H2zM3 66h1v1H3zM4 66h1v1H4zM5 66h1v1H5zM8 66h1v1H8zM9 66h1v1H9zM10 66h1v1h-1zM11 66h1v1h-1zM26 66h1v1h-1zM27 66h1v1h-1zM28 66h1v1h-1zM29 66h1v1h-1zM32 66h1v1h-1zM33 66h1v1h-1zM34 66h1v1h-1zM35 66h1v1h-1zM36 66h1v1h-1zM37 66h1v1h-1zM38 66h1v1h-1zM39 66h1v1h-1zM46 66h1v1h-1zM47 66h1v1h-1zM62 66h1v1h-1zM63 66h1v1h-1zM66 66h1v1h-1zM67 66h1v1h-1zM70 66h1v1h-1zM71 66h1v1h-1zM72 66h1v1h-1zM73 66h1v1h-1zM74 66h1v1h-1zM75 66h1v1h-1zM76 66h1v1h-1zM77 66h1v1h-1zM78 66h1v1h-1zM79 66h1v1h-1zM80 66h1v1h-1zM81 66h1v1h-1zM82 66h1v1h-1zM83 66h1v1h-1zM86 66h1v1h-1zM87 66h1v1h-1zM88 66h1v1h-1zM89 66h1v1h-1zM90 66h1v1h-1zM91 66h1v1h-1zM92 66h1v1h-1zM93 66h1v1h-1zM94 66h1v1h-1zM95 66h1v1h-1zM96 66h1v1h-1zM97 66h1v1h-1zM98 66h1v1h-1zM99 66h1v1h-1zM100 66h1v1h-1zM101 66h1v1h-1zM102 66h1v1h-1zM103 66h1v1h-1zM104 66h1v1h-1zM105 66h1v1h-1zM106 66h1v1h-1zM107 66h1v1h-1zM110 66h1v1h-1zM111 66h1v1h-1zM112 66h1v1h-1zM113 66h1v1h-1zM114 66h1v1h-1zM115 66h1v1h-1zM116 66h1v1h-1zM117 66h1v1h-1zM2 67h1v1H2zM3 67h1v1H3zM4 67h1v1H4zM5 67h1v1H5zM8 67h1v1H8zM9 67h1v1H9zM10 67h1v1h-1zM11 67h1v1h-1zM26 67h1v1h-1zM27 67h1v1h-1zM28 67h1v1h-1zM29 67h1v1h-1zM32 67h1v1h-1zM33 67h1v1h-1zM34 67h1v1h-1zM35 67h1v1h-1zM36 67h1v1h-1zM37 67h1v1h-1zM38 67h1v1h-1zM39 67h1v1h-1zM46 67h1v1h-1zM47 67h1v1h-1zM62 67h1v1h-1zM63 67h1v1h-1zM66 67h1v1h-1zM67 67h1v1h-1zM70 67h1v1h-1zM71 67h1v1h-1zM72 67h1v1h-1zM73 67h1v1h-1zM74 67h1v1h-1zM75 67h1v1h-1zM76 67h1v1h-1zM77 67h1v1h-1zM78 67h1v1h-1zM79 67h1v1h-1zM80 67h1v1h-1zM81 67h1v1h-1zM82 67h1v1h-1zM83 67h1v1h-1zM86 67h1v1h-1zM87 67h1v1h-1zM88 67h1v1h-1zM89 67h1v1h-1zM90 67h1v1h-1zM91 67h1v1h-1zM92 67h1v1h-1zM93 67h1v1h-1zM94 67h1v1h-1zM95 67h1v1h-1zM96 67h1v1h-1zM97 67h1v1h-1zM98 67h1v1h-1zM99 67h1v1h-1zM100 67h1v1h-1zM101 67h1v1h-1zM102 67h1v1h-1zM103 67h1v1h-1zM104 67h1v1h-1zM105 67h1v1h-1zM106 67h1v1h-1zM107 67h1v1h-1zM110 67h1v1h-1zM111 67h1v1h-1zM112 67h1v1h-1zM113 67h1v1h-1zM114 67h1v1h-1zM115 67h1v1h-1zM116 67h1v1h-1zM117 67h1v1h-1zM2 68h1v1H2zM3 68h1v1H3zM4 68h1v1H4zM5 68h1v1H5zM6 68h1v1H6zM7 68h1v1H7zM8 68h1v1H8zM9 68h1v1H9zM12 68h1v1h-1zM13 68h1v1h-1zM14 68h1v1h-1zM15 68h1v1h-1zM22 68h1v1h-1zM23 68h1v1h-1zM24 68h1v1h-1zM25 68h1v1h-1zM28 68h1v1h-1zM29 68h1v1h-1zM30 68h1v1h-1zM31 68h1v1h-1zM32 68h1v1h-1zM33 68h1v1h-1zM34 68h1v1h-1zM35 68h1v1h-1zM36 68h1v1h-1zM37 68h1v1h-1zM38 68h1v1h-1zM39 68h1v1h-1zM40 68h1v1h-1zM41 68h1v1h-1zM80 68h1v1h-1zM81 68h1v1h-1zM84 68h1v1h-1zM85 68h1v1h-1zM92 68h1v1h-1zM93 68h1v1h-1zM96 68h1v1h-1zM97 68h1v1h-1zM100 68h1v1h-1zM101 68h1v1h-1zM104 68h1v1h-1zM105 68h1v1h-1zM106 68h1v1h-1zM107 68h1v1h-1zM108 68h1v1h-1zM109 68h1v1h-1zM110 68h1v1h-1zM111 68h1v1h-1zM114 68h1v1h-1zM115 68h1v1h-1zM116 68h1v1h-1zM117 68h1v1h-1zM2 69h1v1H2zM3 69h1v1H3zM4 69h1v1H4zM5 69h1v1H5zM6 69h1v1H6zM7 69h1v1H7zM8 69h1v1H8zM9 69h1v1H9zM12 69h1v1h-1zM13 69h1v1h-1zM14 69h1v1h-1zM15 69h1v1h-1zM22 69h1v1h-1zM23 69h1v1h-1zM24 69h1v1h-1zM25 69h1v1h-1zM28 69h1v1h-1zM29 69h1v1h-1zM30 69h1v1h-1zM31 69h1v1h-1zM32 69h1v1h-1zM33 69h1v1h-1zM34 69h1v1h-1zM35 69h1v1h-1zM36 69h1v1h-1zM37 69h1v1h-1zM38 69h1v1h-1zM39 69h1v1h-1zM40 69h1v1h-1zM41 69h1v1h-1zM80 69h1v1h-1zM81 69h1v1h-1zM84 69h1v1h-1zM85 69h1v1h-1zM92 69h1v1h-1zM93 69h1v1h-1zM96 69h1v1h-1zM97 69h1v1h-1zM100 69h1v1h-1zM101 69h1v1h-1zM104 69h1v1h-1zM105 69h1v1h-1zM106 69h1v1h-1zM107 69h1v1h-1zM108 69h1v1h-1zM109 69h1v1h-1zM110 69h1v1h-1zM111 69h1v1h-1zM114 69h1v1h-1zM115 69h1v1h-1zM116 69h1v1h-1zM117 69h1v1h-1zM4 70h1v1H4zM5 70h1v1H5zM10 70h1v1h-1zM11 70h1v1h-1zM14 70h1v1h-1zM15 70h1v1h-1zM16 70h1v1h-1zM17 70h1v1h-1zM20 70h1v1h-1zM21 70h1v1h-1zM22 70h1v1h-1zM23 70h1v1h-1zM28 70h1v1h-1zM29 70h1v1h-1zM30 70h1v1h-1zM31 70h1v1h-1zM32 70h1v1h-1zM33 70h1v1h-1zM34 70h1v1h-1zM35 70h1v1h-1zM40 70h1v1h-1zM41 70h1v1h-1zM42 70h1v1h-1zM43 70h1v1h-1zM58 70h1v1h-1zM59 70h1v1h-1zM62 70h1v1h-1zM63 70h1v1h-1zM70 70h1v1h-1zM71 70h1v1h-1zM78 70h1v1h-1zM79 70h1v1h-1zM86 70h1v1h-1zM87 70h1v1h-1zM92 70h1v1h-1zM93 70h1v1h-1zM94 70h1v1h-1zM95 70h1v1h-1zM96 70h1v1h-1zM97 70h1v1h-1zM98 70h1v1h-1zM99 70h1v1h-1zM100 70h1v1h-1zM101 70h1v1h-1zM102 70h1v1h-1zM103 70h1v1h-1zM104 70h1v1h-1zM105 70h1v1h-1zM106 70h1v1h-1zM107 70h1v1h-1zM108 70h1v1h-1zM109 70h1v1h-1zM110 70h1v1h-1zM111 70h1v1h-1zM112 70h1v1h-1zM113 70h1v1h-1zM114 70h1v1h-1zM115 70h1v1h-1zM4 71h1v1H4zM5 71h1v1H5zM10 71h1v1h-1zM11 71h1v1h-1zM14 71h1v1h-1zM15 71h1v1h-1zM16 71h1v1h-1zM17 71h1v1h-1zM20 71h1v1h-1zM21 71h1v1h-1zM22 71h1v1h-1zM23 71h1v1h-1zM28 71h1v1h-1zM29 71h1v1h-1zM30 71h1v1h-1zM31 71h1v1h-1zM32 71h1v1h-1zM33 71h1v1h-1zM34 71h1v1h-1zM35 71h1v1h-1zM40 71h1v1h-1zM41 71h1v1h-1zM42 71h1v1h-1zM43 71h1v1h-1zM58 71h1v1h-1zM59 71h1v1h-1zM62 71h1v1h-1zM63 71h1v1h-1zM70 71h1v1h-1zM71 71h1v1h-1zM78 71h1v1h-1zM79 71h1v1h-1zM86 71h1v1h-1zM87 71h1v1h-1zM92 71h1v1h-1zM93 71h1v1h-1zM94 71h1v1h-1zM95 71h1v1h-1zM96 71h1v1h-1zM97 71h1v1h-1zM98 71h1v1h-1zM99 71h1v1h-1zM100 71h1v1h-1zM101 71h1v1h-1zM102 71h1v1h-1zM103 71h1v1h-1zM104 71h1v1h-1zM105 71h1v1h-1zM106 71h1v1h-1zM107 71h1v1h-1zM108 71h1v1h-1zM109 71h1v1h-1zM110 71h1v1h-1zM111 71h1v1h-1zM112 71h1v1h-1zM113 71h1v1h-1zM114 71h1v1h-1zM115 71h1v1h-1zM4 72h1v1H4zM5 72h1v1H5zM6 72h1v1H6zM7 72h1v1H7zM8 72h1v1H8zM9 72h1v1H9zM12 72h1v1h-1zM13 72h1v1h-1zM16 72h1v1h-1zM17 72h1v1h-1zM18 72h1v1h-1zM19 72h1v1h-1zM20 72h1v1h-1zM21 72h1v1h-1zM22 72h1v1h-1zM23 72h1v1h-1zM26 72h1v1h-1zM27 72h1v1h-1zM30 72h1v1h-1zM31 72h1v1h-1zM32 72h1v1h-1zM33 72h1v1h-1zM34 72h1v1h-1zM35 72h1v1h-1zM36 72h1v1h-1zM37 72h1v1h-1zM38 72h1v1h-1zM39 72h1v1h-1zM84 72h1v1h-1zM85 72h1v1h-1zM86 72h1v1h-1zM87 72h1v1h-1zM88 72h1v1h-1zM89 72h1v1h-1zM92 72h1v1h-1zM93 72h1v1h-1zM94 72h1v1h-1zM95 72h1v1h-1zM96 72h1v1h-1zM97 72h1v1h-1zM100 72h1v1h-1zM101 72h1v1h-1zM104 72h1v1h-1zM105 72h1v1h-1zM108 72h1v1h-1zM109 72h1v1h-1zM110 72h1v1h-1zM111 72h1v1h-1zM112 72h1v1h-1zM113 72h1v1h-1zM114 72h1v1h-1zM115 72h1v1h-1zM4 73h1v1H4zM5 73h1v1H5zM6 73h1v1H6zM7 73h1v1H7zM8 73h1v1H8zM9 73h1v1H9zM12 73h1v1h-1zM13 73h1v1h-1zM16 73h1v1h-1zM17 73h1v1h-1zM18 73h1v1h-1zM19 73h1v1h-1zM20 73h1v1h-1zM21 73h1v1h-1zM22 73h1v1h-1zM23 73h1v1h-1zM26 73h1v1h-1zM27 73h1v1h-1zM30 73h1v1h-1zM31 73h1v1h-1zM32 73h1v1h-1zM33 73h1v1h-1zM34 73h1v1h-1zM35 73h1v1h-1zM36 73h1v1h-1zM37 73h1v1h-1zM38 73h1v1h-1zM39 73h1v1h-1zM84 73h1v1h-1zM85 73h1v1h-1zM86 73h1v1h-1zM87 73h1v1h-1zM88 73h1v1h-1zM89 73h1v1h-1zM92 73h1v1h-1zM93 73h1v1h-1zM94 73h1v1h-1zM95 73h1v1h-1zM96 73h1v1h-1zM97 73h1v1h-1zM100 73h1v1h-1zM101 73h1v1h-1zM104 73h1v1h-1zM105 73h1v1h-1zM108 73h1v1h-1zM109 73h1v1h-1zM110 73h1v1h-1zM111 73h1v1h-1zM112 73h1v1h-1zM113 73h1v1h-1zM114 73h1v1h-1zM115 73h1v1h-1zM4 74h1v1H4zM5 74h1v1H5zM6 74h1v1H6zM7 74h1v1H7zM10 74h1v1h-1zM11 74h1v1h-1zM14 74h1v1h-1zM15 74h1v1h-1zM18 74h1v1h-1zM19 74h1v1h-1zM20 74h1v1h-1zM21 74h1v1h-1zM24 74h1v1h-1zM25 74h1v1h-1zM26 74h1v1h-1zM27 74h1v1h-1zM28 74h1v1h-1zM29 74h1v1h-1zM30 74h1v1h-1zM31 74h1v1h-1zM32 74h1v1h-1zM33 74h1v1h-1zM34 74h1v1h-1zM35 74h1v1h-1zM38 74h1v1h-1zM39 74h1v1h-1zM40 74h1v1h-1zM41 74h1v1h-1zM54 74h1v1h-1zM55 74h1v1h-1zM66 74h1v1h-1zM67 74h1v1h-1zM70 74h1v1h-1zM71 74h1v1h-1zM74 74h1v1h-1zM75 74h1v1h-1zM78 74h1v1h-1zM79 74h1v1h-1zM86 74h1v1h-1zM87 74h1v1h-1zM88 74h1v1h-1zM89 74h1v1h-1zM90 74h1v1h-1zM91 74h1v1h-1zM92 74h1v1h-1zM93 74h1v1h-1zM94 74h1v1h-1zM95 74h1v1h-1zM96 74h1v1h-1zM97 74h1v1h-1zM100 74h1v1h-1zM101 74h1v1h-1zM102 74h1v1h-1zM103 74h1v1h-1zM104 74h1v1h-1zM105 74h1v1h-1zM106 74h1v1h-1zM107 74h1v1h-1zM108 74h1v1h-1zM109 74h1v1h-1zM110 74h1v1h-1zM111 74h1v1h-1zM112 74h1v1h-1zM113 74h1v1h-1zM114 74h1v1h-1zM115 74h1v1h-1zM4 75h1v1H4zM5 75h1v1H5zM6 75h1v1H6zM7 75h1v1H7zM10 75h1v1h-1zM11 75h1v1h-1zM14 75h1v1h-1zM15 75h1v1h-1zM18 75h1v1h-1zM19 75h1v1h-1zM20 75h1v1h-1zM21 75h1v1h-1zM24 75h1v1h-1zM25 75h1v1h-1zM26 75h1v1h-1zM27 75h1v1h-1zM28 75h1v1h-1zM29 75h1v1h-1zM30 75h1v1h-1zM31 75h1v1h-1zM32 75h1v1h-1zM33 75h1v1h-1zM34 75h1v1h-1zM35 75h1v1h-1zM38 75h1v1h-1zM39 75h1v1h-1zM40 75h1v1h-1zM41 75h1v1h-1zM54 75h1v1h-1zM55 75h1v1h-1zM66 75h1v1h-1zM67 75h1v1h-1zM70 75h1v1h-1zM71 75h1v1h-1zM74 75h1v1h-1zM75 75h1v1h-1zM78 75h1v1h-1zM79 75h1v1h-1zM86 75h1v1h-1zM87 75h1v1h-1zM88 75h1v1h-1zM89 75h1v1h-1zM90 75h1v1h-1zM91 75h1v1h-1zM92 75h1v1h-1zM93 75h1v1h-1zM94 75h1v1h-1zM95 75h1v1h-1zM96 75h1v1h-1zM97 75h1v1h-1zM100 75h1v1h-1zM101 75h1v1h-1zM102 75h1v1h-1zM103 75h1v1h-1zM104 75h1v1h-1zM105 75h1v1h-1zM106 75h1v1h-1zM107 75h1v1h-1zM108 75h1v1h-1zM109 75h1v1h-1zM110 75h1v1h-1zM111 75h1v1h-1zM112 75h1v1h-1zM113 75h1v1h-1zM114 75h1v1h-1zM115 75h1v1h-1zM4 76h1v1H4zM5 76h1v1H5zM6 76h1v1H6zM7 76h1v1H7zM8 76h1v1H8zM9 76h1v1H9zM12 76h1v1h-1zM13 76h1v1h-1zM16 76h1v1h-1zM17 76h1v1h-1zM20 76h1v1h-1zM21 76h1v1h-1zM22 76h1v1h-1zM23 76h1v1h-1zM24 76h1v1h-1zM25 76h1v1h-1zM26 76h1v1h-1zM27 76h1v1h-1zM28 76h1v1h-1zM29 76h1v1h-1zM30 76h1v1h-1zM31 76h1v1h-1zM32 76h1v1h-1zM33 76h1v1h-1zM34 76h1v1h-1zM35 76h1v1h-1zM36 76h1v1h-1zM37 76h1v1h-1zM40 76h1v1h-1zM41 76h1v1h-1zM66 76h1v1h-1zM67 76h1v1h-1zM72 76h1v1h-1zM73 76h1v1h-1zM90 76h1v1h-1zM91 76h1v1h-1zM98 76h1v1h-1zM99 76h1v1h-1zM104 76h1v1h-1zM105 76h1v1h-1zM106 76h1v1h-1zM107 76h1v1h-1zM108 76h1v1h-1zM109 76h1v1h-1zM110 76h1v1h-1zM111 76h1v1h-1zM112 76h1v1h-1zM113 76h1v1h-1zM114 76h1v1h-1zM115 76h1v1h-1zM4 77h1v1H4zM5 77h1v1H5zM6 77h1v1H6zM7 77h1v1H7zM8 77h1v1H8zM9 77h1v1H9zM12 77h1v1h-1zM13 77h1v1h-1zM16 77h1v1h-1zM17 77h1v1h-1zM20 77h1v1h-1zM21 77h1v1h-1zM22 77h1v1h-1zM23 77h1v1h-1zM24 77h1v1h-1zM25 77h1v1h-1zM26 77h1v1h-1zM27 77h1v1h-1zM28 77h1v1h-1zM29 77h1v1h-1zM30 77h1v1h-1zM31 77h1v1h-1zM32 77h1v1h-1zM33 77h1v1h-1zM34 77h1v1h-1zM35 77h1v1h-1zM36 77h1v1h-1zM37 77h1v1h-1zM40 77h1v1h-1zM41 77h1v1h-1zM66 77h1v1h-1zM67 77h1v1h-1zM72 77h1v1h-1zM73 77h1v1h-1zM90 77h1v1h-1zM91 77h1v1h-1zM98 77h1v1h-1zM99 77h1v1h-1zM104 77h1v1h-1zM105 77h1v1h-1zM106 77h1v1h-1zM107 77h1v1h-1zM108 77h1v1h-1zM109 77h1v1h-1zM110 77h1v1h-1zM111 77h1v1h-1zM112 77h1v1h-1zM113 77h1v1h-1zM114 77h1v1h-1zM115 77h1v1h-1zM6 78h1v1H6zM7 78h1v1H7zM8 78h1v1H8zM9 78h1v1H9zM10 78h1v1h-1zM11 78h1v1h-1zM14 78h1v1h-1zM15 78h1v1h-1zM16 78h1v1h-1zM17 78h1v1h-1zM18 78h1v1h-1zM19 78h1v1h-1zM20 78h1v1h-1zM21 78h1v1h-1zM22 78h1v1h-1zM23 78h1v1h-1zM24 78h1v1h-1zM25 78h1v1h-1zM26 78h1v1h-1zM27 78h1v1h-1zM28 78h1v1h-1zM29 78h1v1h-1zM30 78h1v1h-1zM31 78h1v1h-1zM32 78h1v1h-1zM33 78h1v1h-1zM34 78h1v1h-1zM35 78h1v1h-1zM36 78h1v1h-1zM37 78h1v1h-1zM38 78h1v1h-1zM39 78h1v1h-1zM46 78h1v1h-1zM47 78h1v1h-1zM62 78h1v1h-1zM63 78h1v1h-1zM70 78h1v1h-1zM71 78h1v1h-1zM72 78h1v1h-1zM73 78h1v1h-1zM78 78h1v1h-1zM79 78h1v1h-1zM84 78h1v1h-1zM85 78h1v1h-1zM88 78h1v1h-1zM89 78h1v1h-1zM90 78h1v1h-1zM91 78h1v1h-1zM92 78h1v1h-1zM93 78h1v1h-1zM94 78h1v1h-1zM95 78h1v1h-1zM96 78h1v1h-1zM97 78h1v1h-1zM98 78h1v1h-1zM99 78h1v1h-1zM100 78h1v1h-1zM101 78h1v1h-1zM102 78h1v1h-1zM103 78h1v1h-1zM104 78h1v1h-1zM105 78h1v1h-1zM106 78h1v1h-1zM107 78h1v1h-1zM108 78h1v1h-1zM109 78h1v1h-1zM110 78h1v1h-1zM111 78h1v1h-1zM112 78h1v1h-1zM113 78h1v1h-1zM6 79h1v1H6zM7 79h1v1H7zM8 79h1v1H8zM9 79h1v1H9zM10 79h1v1h-1zM11 79h1v1h-1zM14 79h1v1h-1zM15 79h1v1h-1zM16 79h1v1h-1zM17 79h1v1h-1zM18 79h1v1h-1zM19 79h1v1h-1zM20 79h1v1h-1zM21 79h1v1h-1zM22 79h1v1h-1zM23 79h1v1h-1zM24 79h1v1h-1zM25 79h1v1h-1zM26 79h1v1h-1zM27 79h1v1h-1zM28 79h1v1h-1zM29 79h1v1h-1zM30 79h1v1h-1zM31 79h1v1h-1zM32 79h1v1h-1zM33 79h1v1h-1zM34 79h1v1h-1zM35 79h1v1h-1zM36 79h1v1h-1zM37 79h1v1h-1zM38 79h1v1h-1zM39 79h1v1h-1zM46 79h1v1h-1zM47 79h1v1h-1zM62 79h1v1h-1zM63 79h1v1h-1zM70 79h1v1h-1zM71 79h1v1h-1zM72 79h1v1h-1zM73 79h1v1h-1zM78 79h1v1h-1zM79 79h1v1h-1zM84 79h1v1h-1zM85 79h1v1h-1zM88 79h1v1h-1zM89 79h1v1h-1zM90 79h1v1h-1zM91 79h1v1h-1zM92 79h1v1h-1zM93 79h1v1h-1zM94 79h1v1h-1zM95 79h1v1h-1zM96 79h1v1h-1zM97 79h1v1h-1zM98 79h1v1h-1zM99 79h1v1h-1zM100 79h1v1h-1zM101 79h1v1h-1zM102 79h1v1h-1zM103 79h1v1h-1zM104 79h1v1h-1zM105 79h1v1h-1zM106 79h1v1h-1zM107 79h1v1h-1zM108 79h1v1h-1zM109 79h1v1h-1zM110 79h1v1h-1zM111 79h1v1h-1zM112 79h1v1h-1zM113 79h1v1h-1zM6 80h1v1H6zM7 80h1v1H7zM8 80h1v1H8zM9 80h1v1H9zM12 80h1v1h-1zM13 80h1v1h-1zM16 80h1v1h-1zM17 80h1v1h-1zM18 80h1v1h-1zM19 80h1v1h-1zM20 80h1v1h-1zM21 80h1v1h-1zM22 80h1v1h-1zM23 80h1v1h-1zM26 80h1v1h-1zM27 80h1v1h-1zM28 80h1v1h-1zM29 80h1v1h-1zM32 80h1v1h-1zM33 80h1v1h-1zM34 80h1v1h-1zM35 80h1v1h-1zM38 80h1v1h-1zM39 80h1v1h-1zM44 80h1v1h-1zM45 80h1v1h-1zM48 80h1v1h-1zM49 80h1v1h-1zM50 80h1v1h-1zM51 80h1v1h-1zM58 80h1v1h-1zM59 80h1v1h-1zM72 80h1v1h-1zM73 80h1v1h-1zM80 80h1v1h-1zM81 80h1v1h-1zM84 80h1v1h-1zM85 80h1v1h-1zM86 80h1v1h-1zM87 80h1v1h-1zM94 80h1v1h-1zM95 80h1v1h-1zM96 80h1v1h-1zM97 80h1v1h-1zM100 80h1v1h-1zM101 80h1v1h-1zM104 80h1v1h-1zM105 80h1v1h-1zM106 80h1v1h-1zM107 80h1v1h-1zM108 80h1v1h-1zM109 80h1v1h-1zM110 80h1v1h-1zM111 80h1v1h-1zM112 80h1v1h-1zM113 80h1v1h-1zM6 81h1v1H6zM7 81h1v1H7zM8 81h1v1H8zM9 81h1v1H9zM12 81h1v1h-1zM13 81h1v1h-1zM16 81h1v1h-1zM17 81h1v1h-1zM18 81h1v1h-1zM19 81h1v1h-1zM20 81h1v1h-1zM21 81h1v1h-1zM22 81h1v1h-1zM23 81h1v1h-1zM26 81h1v1h-1zM27 81h1v1h-1zM28 81h1v1h-1zM29 81h1v1h-1zM32 81h1v1h-1zM33 81h1v1h-1zM34 81h1v1h-1zM35 81h1v1h-1zM38 81h1v1h-1zM39 81h1v1h-1zM44 81h1v1h-1zM45 81h1v1h-1zM48 81h1v1h-1zM49 81h1v1h-1zM50 81h1v1h-1zM51 81h1v1h-1zM58 81h1v1h-1zM59 81h1v1h-1zM72 81h1v1h-1zM73 81h1v1h-1zM80 81h1v1h-1zM81 81h1v1h-1zM84 81h1v1h-1zM85 81h1v1h-1zM86 81h1v1h-1zM87 81h1v1h-1zM94 81h1v1h-1zM95 81h1v1h-1zM96 81h1v1h-1zM97 81h1v1h-1zM100 81h1v1h-1zM101 81h1v1h-1zM104 81h1v1h-1zM105 81h1v1h-1zM106 81h1v1h-1zM107 81h1v1h-1zM108 81h1v1h-1zM109 81h1v1h-1zM110 81h1v1h-1zM111 81h1v1h-1zM112 81h1v1h-1zM113 81h1v1h-1zM8 82h1v1H8zM9 82h1v1H9zM10 82h1v1h-1zM11 82h1v1h-1zM12 82h1v1h-1zM13 82h1v1h-1zM14 82h1v1h-1zM15 82h1v1h-1zM16 82h1v1h-1zM17 82h1v1h-1zM18 82h1v1h-1zM19 82h1v1h-1zM20 82h1v1h-1zM21 82h1v1h-1zM24 82h1v1h-1zM25 82h1v1h-1zM26 82h1v1h-1zM27 82h1v1h-1zM28 82h1v1h-1zM29 82h1v1h-1zM30 82h1v1h-1zM31 82h1v1h-1zM34 82h1v1h-1zM35 82h1v1h-1zM36 82h1v1h-1zM37 82h1v1h-1zM38 82h1v1h-1zM39 82h1v1h-1zM42 82h1v1h-1zM43 82h1v1h-1zM52 82h1v1h-1zM53 82h1v1h-1zM62 82h1v1h-1zM63 82h1v1h-1zM64 82h1v1h-1zM65 82h1v1h-1zM66 82h1v1h-1zM67 82h1v1h-1zM78 82h1v1h-1zM79 82h1v1h-1zM80 82h1v1h-1zM81 82h1v1h-1zM84 82h1v1h-1zM85 82h1v1h-1zM90 82h1v1h-1zM91 82h1v1h-1zM92 82h1v1h-1zM93 82h1v1h-1zM94 82h1v1h-1zM95 82h1v1h-1zM96 82h1v1h-1zM97 82h1v1h-1zM98 82h1v1h-1zM99 82h1v1h-1zM100 82h1v1h-1zM101 82h1v1h-1zM102 82h1v1h-1zM103 82h1v1h-1zM104 82h1v1h-1zM105 82h1v1h-1zM106 82h1v1h-1zM107 82h1v1h-1zM108 82h1v1h-1zM109 82h1v1h-1zM110 82h1v1h-1zM111 82h1v1h-1zM8 83h1v1H8zM9 83h1v1H9zM10 83h1v1h-1zM11 83h1v1h-1zM12 83h1v1h-1zM13 83h1v1h-1zM14 83h1v1h-1zM15 83h1v1h-1zM16 83h1v1h-1zM17 83h1v1h-1zM18 83h1v1h-1zM19 83h1v1h-1zM20 83h1v1h-1zM21 83h1v1h-1zM24 83h1v1h-1zM25 83h1v1h-1zM26 83h1v1h-1zM27 83h1v1h-1zM28 83h1v1h-1zM29 83h1v1h-1zM30 83h1v1h-1zM31 83h1v1h-1zM34 83h1v1h-1zM35 83h1v1h-1zM36 83h1v1h-1zM37 83h1v1h-1zM38 83h1v1h-1zM39 83h1v1h-1zM42 83h1v1h-1zM43 83h1v1h-1zM52 83h1v1h-1zM53 83h1v1h-1zM62 83h1v1h-1zM63 83h1v1h-1zM64 83h1v1h-1zM65 83h1v1h-1zM66 83h1v1h-1zM67 83h1v1h-1zM78 83h1v1h-1zM79 83h1v1h-1zM80 83h1v1h-1zM81 83h1v1h-1zM84 83h1v1h-1zM85 83h1v1h-1zM90 83h1v1h-1zM91 83h1v1h-1zM92 83h1v1h-1zM93 83h1v1h-1zM94 83h1v1h-1zM95 83h1v1h-1zM96 83h1v1h-1zM97 83h1v1h-1zM98 83h1v1h-1zM99 83h1v1h-1zM100 83h1v1h-1zM101 83h1v1h-1zM102 83h1v1h-1zM103 83h1v1h-1zM104 83h1v1h-1zM105 83h1v1h-1zM106 83h1v1h-1zM107 83h1v1h-1zM108 83h1v1h-1zM109 83h1v1h-1zM110 83h1v1h-1zM111 83h1v1h-1zM8 84h1v1H8zM9 84h1v1H9zM10 84h1v1h-1zM11 84h1v1h-1zM12 84h1v1h-1zM13 84h1v1h-1zM14 84h1v1h-1zM15 84h1v1h-1zM16 84h1v1h-1zM17 84h1v1h-1zM18 84h1v1h-1zM19 84h1v1h-1zM20 84h1v1h-1zM21 84h1v1h-1zM24 84h1v1h-1zM25 84h1v1h-1zM26 84h1v1h-1zM27 84h1v1h-1zM30 84h1v1h-1zM31 84h1v1h-1zM32 84h1v1h-1zM33 84h1v1h-1zM34 84h1v1h-1zM35 84h1v1h-1zM44 84h1v1h-1zM45 84h1v1h-1zM54 84h1v1h-1zM55 84h1v1h-1zM56 84h1v1h-1zM57 84h1v1h-1zM58 84h1v1h-1zM59 84h1v1h-1zM62 84h1v1h-1zM63 84h1v1h-1zM76 84h1v1h-1zM77 84h1v1h-1zM80 84h1v1h-1zM81 84h1v1h-1zM84 84h1v1h-1zM85 84h1v1h-1zM88 84h1v1h-1zM89 84h1v1h-1zM92 84h1v1h-1zM93 84h1v1h-1zM96 84h1v1h-1zM97 84h1v1h-1zM100 84h1v1h-1zM101 84h1v1h-1zM102 84h1v1h-1zM103 84h1v1h-1zM104 84h1v1h-1zM105 84h1v1h-1zM106 84h1v1h-1zM107 84h1v1h-1zM108 84h1v1h-1zM109 84h1v1h-1zM110 84h1v1h-1zM111 84h1v1h-1zM8 85h1v1H8zM9 85h1v1H9zM10 85h1v1h-1zM11 85h1v1h-1zM12 85h1v1h-1zM13 85h1v1h-1zM14 85h1v1h-1zM15 85h1v1h-1zM16 85h1v1h-1zM17 85h1v1h-1zM18 85h1v1h-1zM19 85h1v1h-1zM20 85h1v1h-1zM21 85h1v1h-1zM24 85h1v1h-1zM25 85h1v1h-1zM26 85h1v1h-1zM27 85h1v1h-1zM30 85h1v1h-1zM31 85h1v1h-1zM32 85h1v1h-1zM33 85h1v1h-1zM34 85h1v1h-1zM35 85h1v1h-1zM44 85h1v1h-1zM45 85h1v1h-1zM54 85h1v1h-1zM55 85h1v1h-1zM56 85h1v1h-1zM57 85h1v1h-1zM58 85h1v1h-1zM59 85h1v1h-1zM62 85h1v1h-1zM63 85h1v1h-1zM76 85h1v1h-1zM77 85h1v1h-1zM80 85h1v1h-1zM81 85h1v1h-1zM84 85h1v1h-1zM85 85h1v1h-1zM88 85h1v1h-1zM89 85h1v1h-1zM92 85h1v1h-1zM93 85h1v1h-1zM96 85h1v1h-1zM97 85h1v1h-1zM100 85h1v1h-1zM101 85h1v1h-1zM102 85h1v1h-1zM103 85h1v1h-1zM104 85h1v1h-1zM105 85h1v1h-1zM106 85h1v1h-1zM107 85h1v1h-1zM108 85h1v1h-1zM109 85h1v1h-1zM110 85h1v1h-1zM111 85h1v1h-1zM10 86h1v1h-1zM11 86h1v1h-1zM12 86h1v1h-1zM13 86h1v1h-1zM14 86h1v1h-1zM15 86h1v1h-1zM16 86h1v1h-1zM17 86h1v1h-1zM18 86h1v1h-1zM19 86h1v1h-1zM20 86h1v1h-1zM21 86h1v1h-1zM22 86h1v1h-1zM23 86h1v1h-1zM24 86h1v1h-1zM25 86h1v1h-1zM26 86h1v1h-1zM27 86h1v1h-1zM28 86h1v1h-1zM29 86h1v1h-1zM32 86h1v1h-1zM33 86h1v1h-1zM34 86h1v1h-1zM35 86h1v1h-1zM36 86h1v1h-1zM37 86h1v1h-1zM38 86h1v1h-1zM39 86h1v1h-1zM40 86h1v1h-1zM41 86h1v1h-1zM44 86h1v1h-1zM45 86h1v1h-1zM48 86h1v1h-1zM49 86h1v1h-1zM50 86h1v1h-1zM51 86h1v1h-1zM52 86h1v1h-1zM53 86h1v1h-1zM54 86h1v1h-1zM55 86h1v1h-1zM56 86h1v1h-1zM57 86h1v1h-1zM60 86h1v1h-1zM61 86h1v1h-1zM66 86h1v1h-1zM67 86h1v1h-1zM72 86h1v1h-1zM73 86h1v1h-1zM82 86h1v1h-1zM83 86h1v1h-1zM86 86h1v1h-1zM87 86h1v1h-1zM90 86h1v1h-1zM91 86h1v1h-1zM92 86h1v1h-1zM93 86h1v1h-1zM96 86h1v1h-1zM97 86h1v1h-1zM98 86h1v1h-1zM99 86h1v1h-1zM100 86h1v1h-1zM101 86h1v1h-1zM102 86h1v1h-1zM103 86h1v1h-1zM104 86h1v1h-1zM105 86h1v1h-1zM106 86h1v1h-1zM107 86h1v1h-1zM108 86h1v1h-1zM109 86h1v1h-1zM10 87h1v1h-1zM11 87h1v1h-1zM12 87h1v1h-1zM13 87h1v1h-1zM14 87h1v1h-1zM15 87h1v1h-1zM16 87h1v1h-1zM17 87h1v1h-1zM18 87h1v1h-1zM19 87h1v1h-1zM20 87h1v1h-1zM21 87h1v1h-1zM22 87h1v1h-1zM23 87h1v1h-1zM24 87h1v1h-1zM25 87h1v1h-1zM26 87h1v1h-1zM27 87h1v1h-1zM28 87h1v1h-1zM29 87h1v1h-1zM32 87h1v1h-1zM33 87h1v1h-1zM34 87h1v1h-1zM35 87h1v1h-1zM36 87h1v1h-1zM37 87h1v1h-1zM38 87h1v1h-1zM39 87h1v1h-1zM40 87h1v1h-1zM41 87h1v1h-1zM44 87h1v1h-1zM45 87h1v1h-1zM48 87h1v1h-1zM49 87h1v1h-1zM50 87h1v1h-1zM51 87h1v1h-1zM52 87h1v1h-1zM53 87h1v1h-1zM54 87h1v1h-1zM55 87h1v1h-1zM56 87h1v1h-1zM57 87h1v1h-1zM60 87h1v1h-1zM61 87h1v1h-1zM66 87h1v1h-1zM67 87h1v1h-1zM72 87h1v1h-1zM73 87h1v1h-1zM82 87h1v1h-1zM83 87h1v1h-1zM86 87h1v1h-1zM87 87h1v1h-1zM90 87h1v1h-1zM91 87h1v1h-1zM92 87h1v1h-1zM93 87h1v1h-1zM96 87h1v1h-1zM97 87h1v1h-1zM98 87h1v1h-1zM99 87h1v1h-1zM100 87h1v1h-1zM101 87h1v1h-1zM102 87h1v1h-1zM103 87h1v1h-1zM104 87h1v1h-1zM105 87h1v1h-1zM106 87h1v1h-1zM107 87h1v1h-1zM108 87h1v1h-1zM109 87h1v1h-1zM10 88h1v1h-1zM11 88h1v1h-1zM12 88h1v1h-1zM13 88h1v1h-1zM14 88h1v1h-1zM15 88h1v1h-1zM20 88h1v1h-1zM21 88h1v1h-1zM22 88h1v1h-1zM23 88h1v1h-1zM24 88h1v1h-1zM25 88h1v1h-1zM26 88h1v1h-1zM27 88h1v1h-1zM28 88h1v1h-1zM29 88h1v1h-1zM30 88h1v1h-1zM31 88h1v1h-1zM34 88h1v1h-1zM35 88h1v1h-1zM36 88h1v1h-1zM37 88h1v1h-1zM42 88h1v1h-1zM43 88h1v1h-1zM46 88h1v1h-1zM47 88h1v1h-1zM48 88h1v1h-1zM49 88h1v1h-1zM52 88h1v1h-1zM53 88h1v1h-1zM58 88h1v1h-1zM59 88h1v1h-1zM68 88h1v1h-1zM69 88h1v1h-1zM72 88h1v1h-1zM73 88h1v1h-1zM82 88h1v1h-1zM83 88h1v1h-1zM84 88h1v1h-1zM85 88h1v1h-1zM88 88h1v1h-1zM89 88h1v1h-1zM96 88h1v1h-1zM97 88h1v1h-1zM98 88h1v1h-1zM99 88h1v1h-1zM100 88h1v1h-1zM101 88h1v1h-1zM102 88h1v1h-1zM103 88h1v1h-1zM104 88h1v1h-1zM105 88h1v1h-1zM106 88h1v1h-1zM107 88h1v1h-1zM108 88h1v1h-1zM109 88h1v1h-1zM10 89h1v1h-1zM11 89h1v1h-1zM12 89h1v1h-1zM13 89h1v1h-1zM14 89h1v1h-1zM15 89h1v1h-1zM20 89h1v1h-1zM21 89h1v1h-1zM22 89h1v1h-1zM23 89h1v1h-1zM24 89h1v1h-1zM25 89h1v1h-1zM26 89h1v1h-1zM27 89h1v1h-1zM28 89h1v1h-1zM29 89h1v1h-1zM30 89h1v1h-1zM31 89h1v1h-1zM34 89h1v1h-1zM35 89h1v1h-1zM36 89h1v1h-1zM37 89h1v1h-1zM42 89h1v1h-1zM43 89h1v1h-1zM46 89h1v1h-1zM47 89h1v1h-1zM48 89h1v1h-1zM49 89h1v1h-1zM52 89h1v1h-1zM53 89h1v1h-1zM58 89h1v1h-1zM59 89h1v1h-1zM68 89h1v1h-1zM69 89h1v1h-1zM72 89h1v1h-1zM73 89h1v1h-1zM82 89h1v1h-1zM83 89h1v1h-1zM84 89h1v1h-1zM85 89h1v1h-1zM88 89h1v1h-1zM89 89h1v1h-1zM96 89h1v1h-1zM97 89h1v1h-1zM98 89h1v1h-1zM99 89h1v1h-1zM100 89h1v1h-1zM101 89h1v1h-1zM102 89h1v1h-1zM103 89h1v1h-1zM104 89h1v1h-1zM105 89h1v1h-1zM106 89h1v1h-1zM107 89h1v1h-1zM108 89h1v1h-1zM109 89h1v1h-1zM12 90h1v1h-1zM13 90h1v1h-1zM14 90h1v1h-1zM15 90h1v1h-1zM16 90h1v1h-1zM17 90h1v1h-1zM18 90h1v1h-1zM19 90h1v1h-1zM20 90h1v1h-1zM21 90h1v1h-1zM24 90h1v1h-1zM25 90h1v1h-1zM28 90h1v1h-1zM29 90h1v1h-1zM30 90h1v1h-1zM31 90h1v1h-1zM32 90h1v1h-1zM33 90h1v1h-1zM34 90h1v1h-1zM35 90h1v1h-1zM38 90h1v1h-1zM39 90h1v1h-1zM40 90h1v1h-1zM41 90h1v1h-1zM44 90h1v1h-1zM45 90h1v1h-1zM46 90h1v1h-1zM47 90h1v1h-1zM52 90h1v1h-1zM53 90h1v1h-1zM56 90h1v1h-1zM57 90h1v1h-1zM72 90h1v1h-1zM73 90h1v1h-1zM74 90h1v1h-1zM75 90h1v1h-1zM80 90h1v1h-1zM81 90h1v1h-1zM82 90h1v1h-1zM83 90h1v1h-1zM90 90h1v1h-1zM91 90h1v1h-1zM94 90h1v1h-1zM95 90h1v1h-1zM96 90h1v1h-1zM97 90h1v1h-1zM98 90h1v1h-1zM99 90h1v1h-1zM100 90h1v1h-1zM101 90h1v1h-1zM102 90h1v1h-1zM103 90h1v1h-1zM104 90h1v1h-1zM105 90h1v1h-1zM106 90h1v1h-1zM107 90h1v1h-1zM12 91h1v1h-1zM13 91h1v1h-1zM14 91h1v1h-1zM15 91h1v1h-1zM16 91h1v1h-1zM17 91h1v1h-1zM18 91h1v1h-1zM19 91h1v1h-1zM20 91h1v1h-1zM21 91h1v1h-1zM24 91h1v1h-1zM25 91h1v1h-1zM28 91h1v1h-1zM29 91h1v1h-1zM30 91h1v1h-1zM31 91h1v1h-1zM32 91h1v1h-1zM33 91h1v1h-1zM34 91h1v1h-1zM35 91h1v1h-1zM38 91h1v1h-1zM39 91h1v1h-1zM40 91h1v1h-1zM41 91h1v1h-1zM44 91h1v1h-1zM45 91h1v1h-1zM46 91h1v1h-1zM47 91h1v1h-1zM52 91h1v1h-1zM53 91h1v1h-1zM56 91h1v1h-1zM57 91h1v1h-1zM72 91h1v1h-1zM73 91h1v1h-1zM74 91h1v1h-1zM75 91h1v1h-1zM80 91h1v1h-1zM81 91h1v1h-1zM82 91h1v1h-1zM83 91h1v1h-1zM90 91h1v1h-1zM91 91h1v1h-1zM94 91h1v1h-1zM95 91h1v1h-1zM96 91h1v1h-1zM97 91h1v1h-1zM98 91h1v1h-1zM99 91h1v1h-1zM100 91h1v1h-1zM101 91h1v1h-1zM102 91h1v1h-1zM103 91h1v1h-1zM104 91h1v1h-1zM105 91h1v1h-1zM106 91h1v1h-1zM107 91h1v1h-1zM14 92h1v1h-1zM15 92h1v1h-1zM16 92h1v1h-1zM17 92h1v1h-1zM18 92h1v1h-1zM19 92h1v1h-1zM20 92h1v1h-1zM21 92h1v1h-1zM22 92h1v1h-1zM23 92h1v1h-1zM24 92h1v1h-1zM25 92h1v1h-1zM26 92h1v1h-1zM27 92h1v1h-1zM28 92h1v1h-1zM29 92h1v1h-1zM34 92h1v1h-1zM35 92h1v1h-1zM38 92h1v1h-1zM39 92h1v1h-1zM40 92h1v1h-1zM41 92h1v1h-1zM44 92h1v1h-1zM45 92h1v1h-1zM46 92h1v1h-1zM47 92h1v1h-1zM48 92h1v1h-1zM49 92h1v1h-1zM50 92h1v1h-1zM51 92h1v1h-1zM54 92h1v1h-1zM55 92h1v1h-1zM56 92h1v1h-1zM57 92h1v1h-1zM66 92h1v1h-1zM67 92h1v1h-1zM72 92h1v1h-1zM73 92h1v1h-1zM74 92h1v1h-1zM75 92h1v1h-1zM80 92h1v1h-1zM81 92h1v1h-1zM88 92h1v1h-1zM89 92h1v1h-1zM92 92h1v1h-1zM93 92h1v1h-1zM94 92h1v1h-1zM95 92h1v1h-1zM96 92h1v1h-1zM97 92h1v1h-1zM98 92h1v1h-1zM99 92h1v1h-1zM100 92h1v1h-1zM101 92h1v1h-1zM102 92h1v1h-1zM103 92h1v1h-1zM104 92h1v1h-1zM105 92h1v1h-1zM14 93h1v1h-1zM15 93h1v1h-1zM16 93h1v1h-1zM17 93h1v1h-1zM18 93h1v1h-1zM19 93h1v1h-1zM20 93h1v1h-1zM21 93h1v1h-1zM22 93h1v1h-1zM23 93h1v1h-1zM24 93h1v1h-1zM25 93h1v1h-1zM26 93h1v1h-1zM27 93h1v1h-1zM28 93h1v1h-1zM29 93h1v1h-1zM34 93h1v1h-1zM35 93h1v1h-1zM38 93h1v1h-1zM39 93h1v1h-1zM40 93h1v1h-1zM41 93h1v1h-1zM44 93h1v1h-1zM45 93h1v1h-1zM46 93h1v1h-1zM47 93h1v1h-1zM48 93h1v1h-1zM49 93h1v1h-1zM50 93h1v1h-1zM51 93h1v1h-1zM54 93h1v1h-1zM55 93h1v1h-1zM56 93h1v1h-1zM57 93h1v1h-1zM66 93h1v1h-1zM67 93h1v1h-1zM72 93h1v1h-1zM73 93h1v1h-1zM74 93h1v1h-1zM75 93h1v1h-1zM80 93h1v1h-1zM81 93h1v1h-1zM88 93h1v1h-1zM89 93h1v1h-1zM92 93h1v1h-1zM93 93h1v1h-1zM94 93h1v1h-1zM95 93h1v1h-1zM96 93h1v1h-1zM97 93h1v1h-1zM98 93h1v1h-1zM99 93h1v1h-1zM100 93h1v1h-1zM101 93h1v1h-1zM102 93h1v1h-1zM103 93h1v1h-1zM104 93h1v1h-1zM105 93h1v1h-1zM16 94h1v1h-1zM17 94h1v1h-1zM18 94h1v1h-1zM19 94h1v1h-1zM20 94h1v1h-1zM21 94h1v1h-1zM22 94h1v1h-1zM23 94h1v1h-1zM24 94h1v1h-1zM25 94h1v1h-1zM26 94h1v1h-1zM27 94h1v1h-1zM28 94h1v1h-1zM29 94h1v1h-1zM30 94h1v1h-1zM31 94h1v1h-1zM32 94h1v1h-1zM33 94h1v1h-1zM34 94h1v1h-1zM35 94h1v1h-1zM36 94h1v1h-1zM37 94h1v1h-1zM42 94h1v1h-1zM43 94h1v1h-1zM44 94h1v1h-1zM45 94h1v1h-1zM48 94h1v1h-1zM49 94h1v1h-1zM52 94h1v1h-1zM53 94h1v1h-1zM56 94h1v1h-1zM57 94h1v1h-1zM60 94h1v1h-1zM61 94h1v1h-1zM64 94h1v1h-1zM65 94h1v1h-1zM68 94h1v1h-1zM69 94h1v1h-1zM74 94h1v1h-1zM75 94h1v1h-1zM76 94h1v1h-1zM77 94h1v1h-1zM78 94h1v1h-1zM79 94h1v1h-1zM80 94h1v1h-1zM81 94h1v1h-1zM86 94h1v1h-1zM87 94h1v1h-1zM90 94h1v1h-1zM91 94h1v1h-1zM92 94h1v1h-1zM93 94h1v1h-1zM94 94h1v1h-1zM95 94h1v1h-1zM96 94h1v1h-1zM97 94h1v1h-1zM98 94h1v1h-1zM99 94h1v1h-1zM100 94h1v1h-1zM101 94h1v1h-1zM102 94h1v1h-1zM103 94h1v1h-1zM16 95h1v1h-1zM17 95h1v1h-1zM18 95h1v1h-1zM19 95h1v1h-1zM20 95h1v1h-1zM21 95h1v1h-1zM22 95h1v1h-1zM23 95h1v1h-1zM24 95h1v1h-1zM25 95h1v1h-1zM26 95h1v1h-1zM27 95h1v1h-1zM28 95h1v1h-1zM29 95h1v1h-1zM30 95h1v1h-1zM31 95h1v1h-1zM32 95h1v1h-1zM33 95h1v1h-1zM34 95h1v1h-1zM35 95h1v1h-1zM36 95h1v1h-1zM37 95h1v1h-1zM42 95h1v1h-1zM43 95h1v1h-1zM44 95h1v1h-1zM45 95h1v1h-1zM48 95h1v1h-1zM49 95h1v1h-1zM52 95h1v1h-1zM53 95h1v1h-1zM56 95h1v1h-1zM57 95h1v1h-1zM60 95h1v1h-1zM61 95h1v1h-1zM64 95h1v1h-1zM65 95h1v1h-1zM68 95h1v1h-1zM69 95h1v1h-1zM74 95h1v1h-1zM75 95h1v1h-1zM76 95h1v1h-1zM77 95h1v1h-1zM78 95h1v1h-1zM79 95h1v1h-1zM80 95h1v1h-1zM81 95h1v1h-1zM86 95h1v1h-1zM87 95h1v1h-1zM90 95h1v1h-1zM91 95h1v1h-1zM92 95h1v1h-1zM93 95h1v1h-1zM94 95h1v1h-1zM95 95h1v1h-1zM96 95h1v1h-1zM97 95h1v1h-1zM98 95h1v1h-1zM99 95h1v1h-1zM100 95h1v1h-1zM101 95h1v1h-1zM102 95h1v1h-1zM103 95h1v1h-1zM16 96h1v1h-1zM17 96h1v1h-1zM18 96h1v1h-1zM19 96h1v1h-1zM20 96h1v1h-1zM21 96h1v1h-1zM22 96h1v1h-1zM23 96h1v1h-1zM24 96h1v1h-1zM25 96h1v1h-1zM26 96h1v1h-1zM27 96h1v1h-1zM28 96h1v1h-1zM29 96h1v1h-1zM30 96h1v1h-1zM31 96h1v1h-1zM32 96h1v1h-1zM33 96h1v1h-1zM36 96h1v1h-1zM37 96h1v1h-1zM38 96h1v1h-1zM39 96h1v1h-1zM40 96h1v1h-1zM41 96h1v1h-1zM42 96h1v1h-1zM43 96h1v1h-1zM44 96h1v1h-1zM45 96h1v1h-1zM46 96h1v1h-1zM47 96h1v1h-1zM56 96h1v1h-1zM57 96h1v1h-1zM60 96h1v1h-1zM61 96h1v1h-1zM64 96h1v1h-1zM65 96h1v1h-1zM68 96h1v1h-1zM69 96h1v1h-1zM70 96h1v1h-1zM71 96h1v1h-1zM72 96h1v1h-1zM73 96h1v1h-1zM78 96h1v1h-1zM79 96h1v1h-1zM80 96h1v1h-1zM81 96h1v1h-1zM84 96h1v1h-1zM85 96h1v1h-1zM86 96h1v1h-1zM87 96h1v1h-1zM88 96h1v1h-1zM89 96h1v1h-1zM90 96h1v1h-1zM91 96h1v1h-1zM92 96h1v1h-1zM93 96h1v1h-1zM94 96h1v1h-1zM95 96h1v1h-1zM96 96h1v1h-1zM97 96h1v1h-1zM98 96h1v1h-1zM99 96h1v1h-1zM100 96h1v1h-1zM101 96h1v1h-1zM102 96h1v1h-1zM103 96h1v1h-1zM16 97h1v1h-1zM17 97h1v1h-1zM18 97h1v1h-1zM19 97h1v1h-1zM20 97h1v1h-1zM21 97h1v1h-1zM22 97h1v1h-1zM23 97h1v1h-1zM24 97h1v1h-1zM25 97h1v1h-1zM26 97h1v1h-1zM27 97h1v1h-1zM28 97h1v1h-1zM29 97h1v1h-1zM30 97h1v1h-1zM31 97h1v1h-1zM32 97h1v1h-1zM33 97h1v1h-1zM36 97h1v1h-1zM37 97h1v1h-1zM38 97h1v1h-1zM39 97h1v1h-1zM40 97h1v1h-1zM41 97h1v1h-1zM42 97h1v1h-1zM43 97h1v1h-1zM44 97h1v1h-1zM45 97h1v1h-1zM46 97h1v1h-1zM47 97h1v1h-1zM56 97h1v1h-1zM57 97h1v1h-1zM60 97h1v1h-1zM61 97h1v1h-1zM64 97h1v1h-1zM65 97h1v1h-1zM68 97h1v1h-1zM69 97h1v1h-1zM70 97h1v1h-1zM71 97h1v1h-1zM72 97h1v1h-1zM73 97h1v1h-1zM78 97h1v1h-1zM79 97h1v1h-1zM80 97h1v1h-1zM81 97h1v1h-1zM84 97h1v1h-1zM85 97h1v1h-1zM86 97h1v1h-1zM87 97h1v1h-1zM88 97h1v1h-1zM89 97h1v1h-1zM90 97h1v1h-1zM91 97h1v1h-1zM92 97h1v1h-1zM93 97h1v1h-1zM94 97h1v1h-1zM95 97h1v1h-1zM96 97h1v1h-1zM97 97h1v1h-1zM98 97h1v1h-1zM99 97h1v1h-1zM100 97h1v1h-1zM101 97h1v1h-1zM102 97h1v1h-1zM103 97h1v1h-1zM18 98h1v1h-1zM19 98h1v1h-1zM20 98h1v1h-1zM21 98h1v1h-1zM22 98h1v1h-1zM23 98h1v1h-1zM24 98h1v1h-1zM25 98h1v1h-1zM28 98h1v1h-1zM29 98h1v1h-1zM30 98h1v1h-1zM31 98h1v1h-1zM32 98h1v1h-1zM33 98h1v1h-1zM34 98h1v1h-1zM35 98h1v1h-1zM36 98h1v1h-1zM37 98h1v1h-1zM38 98h1v1h-1zM39 98h1v1h-1zM42 98h1v1h-1zM43 98h1v1h-1zM44 98h1v1h-1zM45 98h1v1h-1zM46 98h1v1h-1zM47 98h1v1h-1zM48 98h1v1h-1zM49 98h1v1h-1zM50 98h1v1h-1zM51 98h1v1h-1zM54 98h1v1h-1zM55 98h1v1h-1zM56 98h1v1h-1zM57 98h1v1h-1zM60 98h1v1h-1zM61 98h1v1h-1zM64 98h1v1h-1zM65 98h1v1h-1zM68 98h1v1h-1zM69 98h1v1h-1zM70 98h1v1h-1zM71 98h1v1h-1zM76 98h1v1h-1zM77 98h1v1h-1zM82 98h1v1h-1zM83 98h1v1h-1zM84 98h1v1h-1zM85 98h1v1h-1zM86 98h1v1h-1zM87 98h1v1h-1zM88 98h1v1h-1zM89 98h1v1h-1zM90 98h1v1h-1zM91 98h1v1h-1zM92 98h1v1h-1zM93 98h1v1h-1zM94 98h1v1h-1zM95 98h1v1h-1zM96 98h1v1h-1zM97 98h1v1h-1zM98 98h1v1h-1zM99 98h1v1h-1zM100 98h1v1h-1zM101 98h1v1h-1zM18 99h1v1h-1zM19 99h1v1h-1zM20 99h1v1h-1zM21 99h1v1h-1zM22 99h1v1h-1zM23 99h1v1h-1zM24 99h1v1h-1zM25 99h1v1h-1zM28 99h1v1h-1zM29 99h1v1h-1zM30 99h1v1h-1zM31 99h1v1h-1zM32 99h1v1h-1zM33 99h1v1h-1zM34 99h1v1h-1zM35 99h1v1h-1zM36 99h1v1h-1zM37 99h1v1h-1zM38 99h1v1h-1zM39 99h1v1h-1zM42 99h1v1h-1zM43 99h1v1h-1zM44 99h1v1h-1zM45 99h1v1h-1zM46 99h1v1h-1zM47 99h1v1h-1zM48 99h1v1h-1zM49 99h1v1h-1zM50 99h1v1h-1zM51 99h1v1h-1zM54 99h1v1h-1zM55 99h1v1h-1zM56 99h1v1h-1zM57 99h1v1h-1zM60 99h1v1h-1zM61 99h1v1h-1zM64 99h1v1h-1zM65 99h1v1h-1zM68 99h1v1h-1zM69 99h1v1h-1zM70 99h1v1h-1zM71 99h1v1h-1zM76 99h1v1h-1zM77 99h1v1h-1zM82 99h1v1h-1zM83 99h1v1h-1zM84 99h1v1h-1zM85 99h1v1h-1zM86 99h1v1h-1zM87 99h1v1h-1zM88 99h1v1h-1zM89 99h1v1h-1zM90 99h1v1h-1zM91 99h1v1h-1zM92 99h1v1h-1zM93 99h1v1h-1zM94 99h1v1h-1zM95 99h1v1h-1zM96 99h1v1h-1zM97 99h1v1h-1zM98 99h1v1h-1zM99 99h1v1h-1zM100 99h1v1h-1zM101 99h1v1h-1zM20 100h1v1h-1zM21 100h1v1h-1zM22 100h1v1h-1zM23 100h1v1h-1zM24 100h1v1h-1zM25 100h1v1h-1zM26 100h1v1h-1zM27 100h1v1h-1zM28 100h1v1h-1zM29 100h1v1h-1zM32 100h1v1h-1zM33 100h1v1h-1zM34 100h1v1h-1zM35 100h1v1h-1zM38 100h1v1h-1zM39 100h1v1h-1zM40 100h1v1h-1zM41 100h1v1h-1zM44 100h1v1h-1zM45 100h1v1h-1zM46 100h1v1h-1zM47 100h1v1h-1zM48 100h1v1h-1zM49 100h1v1h-1zM50 100h1v1h-1zM51 100h1v1h-1zM52 100h1v1h-1zM53 100h1v1h-1zM54 100h1v1h-1zM55 100h1v1h-1zM56 100h1v1h-1zM57 100h1v1h-1zM60 100h1v1h-1zM61 100h1v1h-1zM62 100h1v1h-1zM63 100h1v1h-1zM64 100h1v1h-1zM65 100h1v1h-1zM68 100h1v1h-1zM69 100h1v1h-1zM72 100h1v1h-1zM73 100h1v1h-1zM76 100h1v1h-1zM77 100h1v1h-1zM78 100h1v1h-1zM79 100h1v1h-1zM80 100h1v1h-1zM81 100h1v1h-1zM82 100h1v1h-1zM83 100h1v1h-1zM84 100h1v1h-1zM85 100h1v1h-1zM88 100h1v1h-1zM89 100h1v1h-1zM90 100h1v1h-1zM91 100h1v1h-1zM92 100h1v1h-1zM93 100h1v1h-1zM94 100h1v1h-1zM95 100h1v1h-1zM96 100h1v1h-1zM97 100h1v1h-1zM98 100h1v1h-1zM99 100h1v1h-1zM20 101h1v1h-1zM21 101h1v1h-1zM22 101h1v1h-1zM23 101h1v1h-1zM24 101h1v1h-1zM25 101h1v1h-1zM26 101h1v1h-1zM27 101h1v1h-1zM28 101h1v1h-1zM29 101h1v1h-1zM32 101h1v1h-1zM33 101h1v1h-1zM34 101h1v1h-1zM35 101h1v1h-1zM38 101h1v1h-1zM39 101h1v1h-1zM40 101h1v1h-1zM41 101h1v1h-1zM44 101h1v1h-1zM45 101h1v1h-1zM46 101h1v1h-1zM47 101h1v1h-1zM48 101h1v1h-1zM49 101h1v1h-1zM50 101h1v1h-1zM51 101h1v1h-1zM52 101h1v1h-1zM53 101h1v1h-1zM54 101h1v1h-1zM55 101h1v1h-1zM56 101h1v1h-1zM57 101h1v1h-1zM60 101h1v1h-1zM61 101h1v1h-1zM62 101h1v1h-1zM63 101h1v1h-1zM64 101h1v1h-1zM65 101h1v1h-1zM68 101h1v1h-1zM69 101h1v1h-1zM72 101h1v1h-1zM73 101h1v1h-1zM76 101h1v1h-1zM77 101h1v1h-1zM78 101h1v1h-1zM79 101h1v1h-1zM80 101h1v1h-1zM81 101h1v1h-1zM82 101h1v1h-1zM83 101h1v1h-1zM84 101h1v1h-1zM85 101h1v1h-1zM88 101h1v1h-1zM89 101h1v1h-1zM90 101h1v1h-1zM91 101h1v1h-1zM92 101h1v1h-1zM93 101h1v1h-1zM94 101h1v1h-1zM95 101h1v1h-1zM96 101h1v1h-1zM97 101h1v1h-1zM98 101h1v1h-1zM99 101h1v1h-1zM24 102h1v1h-1zM25 102h1v1h-1zM26 102h1v1h-1zM27 102h1v1h-1zM30 102h1v1h-1zM31 102h1v1h-1zM32 102h1v1h-1zM33 102h1v1h-1zM34 102h1v1h-1zM35 102h1v1h-1zM38 102h1v1h-1zM39 102h1v1h-1zM40 102h1v1h-1zM41 102h1v1h-1zM42 102h1v1h-1zM43 102h1v1h-1zM46 102h1v1h-1zM47 102h1v1h-1zM48 102h1v1h-1zM49 102h1v1h-1zM52 102h1v1h-1zM53 102h1v1h-1zM54 102h1v1h-1zM55 102h1v1h-1zM56 102h1v1h-1zM57 102h1v1h-1zM58 102h1v1h-1zM59 102h1v1h-1zM60 102h1v1h-1zM61 102h1v1h-1zM62 102h1v1h-1zM63 102h1v1h-1zM66 102h1v1h-1zM67 102h1v1h-1zM70 102h1v1h-1zM71 102h1v1h-1zM76 102h1v1h-1zM77 102h1v1h-1zM78 102h1v1h-1zM79 102h1v1h-1zM80 102h1v1h-1zM81 102h1v1h-1zM82 102h1v1h-1zM83 102h1v1h-1zM84 102h1v1h-1zM85 102h1v1h-1zM86 102h1v1h-1zM87 102h1v1h-1zM88 102h1v1h-1zM89 102h1v1h-1zM90 102h1v1h-1zM91 102h1v1h-1zM92 102h1v1h-1zM93 102h1v1h-1zM94 102h1v1h-1zM95 102h1v1h-1zM24 103h1v1h-1zM25 103h1v1h-1zM26 103h1v1h-1zM27 103h1v1h-1zM30 103h1v1h-1zM31 103h1v1h-1zM32 103h1v1h-1zM33 103h1v1h-1zM34 103h1v1h-1zM35 103h1v1h-1zM38 103h1v1h-1zM39 103h1v1h-1zM40 103h1v1h-1zM41 103h1v1h-1zM42 103h1v1h-1zM43 103h1v1h-1zM46 103h1v1h-1zM47 103h1v1h-1zM48 103h1v1h-1zM49 103h1v1h-1zM52 103h1v1h-1zM53 103h1v1h-1zM54 103h1v1h-1zM55 103h1v1h-1zM56 103h1v1h-1zM57 103h1v1h-1zM58 103h1v1h-1zM59 103h1v1h-1zM60 103h1v1h-1zM61 103h1v1h-1zM62 103h1v1h-1zM63 103h1v1h-1zM66 103h1v1h-1zM67 103h1v1h-1zM70 103h1v1h-1zM71 103h1v1h-1zM76 103h1v1h-1zM77 103h1v1h-1zM78 103h1v1h-1zM79 103h1v1h-1zM80 103h1v1h-1zM81 103h1v1h-1zM82 103h1v1h-1zM83 103h1v1h-1zM84 103h1v1h-1zM85 103h1v1h-1zM86 103h1v1h-1zM87 103h1v1h-1zM88 103h1v1h-1zM89 103h1v1h-1zM90 103h1v1h-1zM91 103h1v1h-1zM92 103h1v1h-1zM93 103h1v1h-1zM94 103h1v1h-1zM95 103h1v1h-1zM26 104h1v1h-1zM27 104h1v1h-1zM28 104h1v1h-1zM29 104h1v1h-1zM30 104h1v1h-1zM31 104h1v1h-1zM32 104h1v1h-1zM33 104h1v1h-1zM34 104h1v1h-1zM35 104h1v1h-1zM36 104h1v1h-1zM37 104h1v1h-1zM38 104h1v1h-1zM39 104h1v1h-1zM40 104h1v1h-1zM41 104h1v1h-1zM42 104h1v1h-1zM43 104h1v1h-1zM44 104h1v1h-1zM45 104h1v1h-1zM48 104h1v1h-1zM49 104h1v1h-1zM50 104h1v1h-1zM51 104h1v1h-1zM52 104h1v1h-1zM53 104h1v1h-1zM54 104h1v1h-1zM55 104h1v1h-1zM56 104h1v1h-1zM57 104h1v1h-1zM58 104h1v1h-1zM59 104h1v1h-1zM60 104h1v1h-1zM61 104h1v1h-1zM62 104h1v1h-1zM63 104h1v1h-1zM64 104h1v1h-1zM65 104h1v1h-1zM66 104h1v1h-1zM67 104h1v1h-1zM68 104h1v1h-1zM69 104h1v1h-1zM70 104h1v1h-1zM71 104h1v1h-1zM76 104h1v1h-1zM77 104h1v1h-1zM78 104h1v1h-1zM79 104h1v1h-1zM80 104h1v1h-1zM81 104h1v1h-1zM82 104h1v1h-1zM83 104h1v1h-1zM84 104h1v1h-1zM85 104h1v1h-1zM86 104h1v1h-1zM87 104h1v1h-1zM88 104h1v1h-1zM89 104h1v1h-1zM90 104h1v1h-1zM91 104h1v1h-1zM92 104h1v1h-1zM93 104h1v1h-1zM26 105h1v1h-1zM27 105h1v1h-1zM28 105h1v1h-1zM29 105h1v1h-1zM30 105h1v1h-1zM31 105h1v1h-1zM32 105h1v1h-1zM33 105h1v1h-1zM34 105h1v1h-1zM35 105h1v1h-1zM36 105h1v1h-1zM37 105h1v1h-1zM38 105h1v1h-1zM39 105h1v1h-1zM40 105h1v1h-1zM41 105h1v1h-1zM42 105h1v1h-1zM43 105h1v1h-1zM44 105h1v1h-1zM45 105h1v1h-1zM48 105h1v1h-1zM49 105h1v1h-1zM50 105h1v1h-1zM51 105h1v1h-1zM52 105h1v1h-1zM53 105h1v1h-1zM54 105h1v1h-1zM55 105h1v1h-1zM56 105h1v1h-1zM57 105h1v1h-1zM58 105h1v1h-1zM59 105h1v1h-1zM60 105h1v1h-1zM61 105h1v1h-1zM62 105h1v1h-1zM63 105h1v1h-1zM64 105h1v1h-1zM65 105h1v1h-1zM66 105h1v1h-1zM67 105h1v1h-1zM68 105h1v1h-1zM69 105h1v1h-1zM70 105h1v1h-1zM71 105h1v1h-1zM76 105h1v1h-1zM77 105h1v1h-1zM78 105h1v1h-1zM79 105h1v1h-1zM80 105h1v1h-1zM81 105h1v1h-1zM82 105h1v1h-1zM83 105h1v1h-1zM84 105h1v1h-1zM85 105h1v1h-1zM86 105h1v1h-1zM87 105h1v1h-1zM88 105h1v1h-1zM89 105h1v1h-1zM90 105h1v1h-1zM91 105h1v1h-1zM92 105h1v1h-1zM93 105h1v1h-1zM28 106h1v1h-1zM29 106h1v1h-1zM30 106h1v1h-1zM31 106h1v1h-1zM32 106h1v1h-1zM33 106h1v1h-1zM34 106h1v1h-1zM35 106h1v1h-1zM38 106h1v1h-1zM39 106h1v1h-1zM40 106h1v1h-1zM41 106h1v1h-1zM42 106h1v1h-1zM43 106h1v1h-1zM44 106h1v1h-1zM45 106h1v1h-1zM46 106h1v1h-1zM47 106h1v1h-1zM50 106h1v1h-1zM51 106h1v1h-1zM52 106h1v1h-1zM53 106h1v1h-1zM54 106h1v1h-1zM55 106h1v1h-1zM56 106h1v1h-1zM57 106h1v1h-1zM58 106h1v1h-1zM59 106h1v1h-1zM60 106h1v1h-1zM61 106h1v1h-1zM62 106h1v1h-1zM63 106h1v1h-1zM64 106h1v1h-1zM65 106h1v1h-1zM66 106h1v1h-1zM67 106h1v1h-1zM68 106h1v1h-1zM69 106h1v1h-1zM72 106h1v1h-1zM73 106h1v1h-1zM74 106h1v1h-1zM75 106h1v1h-1zM76 106h1v1h-1zM77 106h1v1h-1zM78 106h1v1h-1zM79 106h1v1h-1zM80 106h1v1h-1zM81 106h1v1h-1zM82 106h1v1h-1zM83 106h1v1h-1zM84 106h1v1h-1zM85 106h1v1h-1zM86 106h1v1h-1zM87 106h1v1h-1zM88 106h1v1h-1zM89 106h1v1h-1zM90 106h1v1h-1zM91 106h1v1h-1zM28 107h1v1h-1zM29 107h1v1h-1zM30 107h1v1h-1zM31 107h1v1h-1zM32 107h1v1h-1zM33 107h1v1h-1zM34 107h1v1h-1zM35 107h1v1h-1zM38 107h1v1h-1zM39 107h1v1h-1zM40 107h1v1h-1zM41 107h1v1h-1zM42 107h1v1h-1zM43 107h1v1h-1zM44 107h1v1h-1zM45 107h1v1h-1zM46 107h1v1h-1zM47 107h1v1h-1zM50 107h1v1h-1zM51 107h1v1h-1zM52 107h1v1h-1zM53 107h1v1h-1zM54 107h1v1h-1zM55 107h1v1h-1zM56 107h1v1h-1zM57 107h1v1h-1zM58 107h1v1h-1zM59 107h1v1h-1zM60 107h1v1h-1zM61 107h1v1h-1zM62 107h1v1h-1zM63 107h1v1h-1zM64 107h1v1h-1zM65 107h1v1h-1zM66 107h1v1h-1zM67 107h1v1h-1zM68 107h1v1h-1zM69 107h1v1h-1zM72 107h1v1h-1zM73 107h1v1h-1zM74 107h1v1h-1zM75 107h1v1h-1zM76 107h1v1h-1zM77 107h1v1h-1zM78 107h1v1h-1zM79 107h1v1h-1zM80 107h1v1h-1zM81 107h1v1h-1zM82 107h1v1h-1zM83 107h1v1h-1zM84 107h1v1h-1zM85 107h1v1h-1zM86 107h1v1h-1zM87 107h1v1h-1zM88 107h1v1h-1zM89 107h1v1h-1zM90 107h1v1h-1zM91 107h1v1h-1zM32 108h1v1h-1zM33 108h1v1h-1zM34 108h1v1h-1zM35 108h1v1h-1zM36 108h1v1h-1zM37 108h1v1h-1zM38 108h1v1h-1zM39 108h1v1h-1zM40 108h1v1h-1zM41 108h1v1h-1zM42 108h1v1h-1zM43 108h1v1h-1zM44 108h1v1h-1zM45 108h1v1h-1zM46 108h1v1h-1zM47 108h1v1h-1zM48 108h1v1h-1zM49 108h1v1h-1zM50 108h1v1h-1zM51 108h1v1h-1zM52 108h1v1h-1zM53 108h1v1h-1zM54 108h1v1h-1zM55 108h1v1h-1zM58 108h1v1h-1zM59 108h1v1h-1zM60 108h1v1h-1zM61 108h1v1h-1zM62 108h1v1h-1zM63 108h1v1h-1zM68 108h1v1h-1zM69 108h1v1h-1zM70 108h1v1h-1zM71 108h1v1h-1zM72 108h1v1h-1zM73 108h1v1h-1zM74 108h1v1h-1zM75 108h1v1h-1zM76 108h1v1h-1zM77 108h1v1h-1zM78 108h1v1h-1zM79 108h1v1h-1zM80 108h1v1h-1zM81 108h1v1h-1zM82 108h1v1h-1zM83 108h1v1h-1zM84 108h1v1h-1zM85 108h1v1h-1zM86 108h1v1h-1zM87 108h1v1h-1zM32 109h1v1h-1zM33 109h1v1h-1zM34 109h1v1h-1zM35 109h1v1h-1zM36 109h1v1h-1zM37 109h1v1h-1zM38 109h1v1h-1zM39 109h1v1h-1zM40 109h1v1h-1zM41 109h1v1h-1zM42 109h1v1h-1zM43 109h1v1h-1zM44 109h1v1h-1zM45 109h1v1h-1zM46 109h1v1h-1zM47 109h1v1h-1zM48 109h1v1h-1zM49 109h1v1h-1zM50 109h1v1h-1zM51 109h1v1h-1zM52 109h1v1h-1zM53 109h1v1h-1zM54 109h1v1h-1zM55 109h1v1h-1zM58 109h1v1h-1zM59 109h1v1h-1zM60 109h1v1h-1zM61 109h1v1h-1zM62 109h1v1h-1zM63 109h1v1h-1zM68 109h1v1h-1zM69 109h1v1h-1zM70 109h1v1h-1zM71 109h1v1h-1zM72 109h1v1h-1zM73 109h1v1h-1zM74 109h1v1h-1zM75 109h1v1h-1zM76 109h1v1h-1zM77 109h1v1h-1zM78 109h1v1h-1zM79 109h1v1h-1zM80 109h1v1h-1zM81 109h1v1h-1zM82 109h1v1h-1zM83 109h1v1h-1zM84 109h1v1h-1zM85 109h1v1h-1zM86 109h1v1h-1zM87 109h1v1h-1zM36 110h1v1h-1zM37 110h1v1h-1zM38 110h1v1h-1zM39 110h1v1h-1zM40 110h1v1h-1zM41 110h1v1h-1zM42 110h1v1h-1zM43 110h1v1h-1zM44 110h1v1h-1zM45 110h1v1h-1zM46 110h1v1h-1zM47 110h1v1h-1zM48 110h1v1h-1zM49 110h1v1h-1zM50 110h1v1h-1zM51 110h1v1h-1zM52 110h1v1h-1zM53 110h1v1h-1zM54 110h1v1h-1zM55 110h1v1h-1zM56 110h1v1h-1zM57 110h1v1h-1zM58 110h1v1h-1zM59 110h1v1h-1zM60 110h1v1h-1zM61 110h1v1h-1zM62 110h1v1h-1zM63 110h1v1h-1zM64 110h1v1h-1zM65 110h1v1h-1zM66 110h1v1h-1zM67 110h1v1h-1zM70 110h1v1h-1zM71 110h1v1h-1zM72 110h1v1h-1zM73 110h1v1h-1zM74 110h1v1h-1zM75 110h1v1h-1zM76 110h1v1h-1zM77 110h1v1h-1zM78 110h1v1h-1zM79 110h1v1h-1zM80 110h1v1h-1zM81 110h1v1h-1zM82 110h1v1h-1zM83 110h1v1h-1zM36 111h1v1h-1zM37 111h1v1h-1zM38 111h1v1h-1zM39 111h1v1h-1zM40 111h1v1h-1zM41 111h1v1h-1zM42 111h1v1h-1zM43 111h1v1h-1zM44 111h1v1h-1zM45 111h1v1h-1zM46 111h1v1h-1zM47 111h1v1h-1zM48 111h1v1h-1zM49 111h1v1h-1zM50 111h1v1h-1zM51 111h1v1h-1zM52 111h1v1h-1zM53 111h1v1h-1zM54 111h1v1h-1zM55 111h1v1h-1zM56 111h1v1h-1zM57 111h1v1h-1zM58 111h1v1h-1zM59 111h1v1h-1zM60 111h1v1h-1zM61 111h1v1h-1zM62 111h1v1h-1zM63 111h1v1h-1zM64 111h1v1h-1zM65 111h1v1h-1zM66 111h1v1h-1zM67 111h1v1h-1zM70 111h1v1h-1zM71 111h1v1h-1zM72 111h1v1h-1zM73 111h1v1h-1zM74 111h1v1h-1zM75 111h1v1h-1zM76 111h1v1h-1zM77 111h1v1h-1zM78 111h1v1h-1zM79 111h1v1h-1zM80 111h1v1h-1zM81 111h1v1h-1zM82 111h1v1h-1zM83 111h1v1h-1zM42 112h1v1h-1zM43 112h1v1h-1zM44 112h1v1h-1zM45 112h1v1h-1zM46 112h1v1h-1zM47 112h1v1h-1zM48 112h1v1h-1zM49 112h1v1h-1zM50 112h1v1h-1zM51 112h1v1h-1zM52 112h1v1h-1zM53 112h1v1h-1zM54 112h1v1h-1zM55 112h1v1h-1zM56 112h1v1h-1zM57 112h1v1h-1zM58 112h1v1h-1zM59 112h1v1h-1zM60 112h1v1h-1zM61 112h1v1h-1zM62 112h1v1h-1zM63 112h1v1h-1zM66 112h1v1h-1zM67 112h1v1h-1zM68 112h1v1h-1zM69 112h1v1h-1zM70 112h1v1h-1zM71 112h1v1h-1zM72 112h1v1h-1zM73 112h1v1h-1zM74 112h1v1h-1zM75 112h1v1h-1zM76 112h1v1h-1zM77 112h1v1h-1zM42 113h1v1h-1zM43 113h1v1h-1zM44 113h1v1h-1zM45 113h1v1h-1zM46 113h1v1h-1zM47 113h1v1h-1zM48 113h1v1h-1zM49 113h1v1h-1zM50 113h1v1h-1zM51 113h1v1h-1zM52 113h1v1h-1zM53 113h1v1h-1zM54 113h1v1h-1zM55 113h1v1h-1zM56 113h1v1h-1zM57 113h1v1h-1zM58 113h1v1h-1zM59 113h1v1h-1zM60 113h1v1h-1zM61 113h1v1h-1zM62 113h1v1h-1zM63 113h1v1h-1zM66 113h1v1h-1zM67 113h1v1h-1zM68 113h1v1h-1zM69 113h1v1h-1zM70 113h1v1h-1zM71 113h1v1h-1zM72 113h1v1h-1zM73 113h1v1h-1zM74 113h1v1h-1zM75 113h1v1h-1zM76 113h1v1h-1zM77 113h1v1h-1zM50 114h1v1h-1zM51 114h1v1h-1zM52 114h1v1h-1zM53 114h1v1h-1zM54 114h1v1h-1zM55 114h1v1h-1zM56 114h1v1h-1zM57 114h1v1h-1zM58 114h1v1h-1zM59 114h1v1h-1zM60 114h1v1h-1zM61 114h1v1h-1zM62 114h1v1h-1zM63 114h1v1h-1zM64 114h1v1h-1zM65 114h1v1h-1zM66 114h1v1h-1zM67 114h1v1h-1zM68 114h1v1h-1zM69 114h1v1h-1zM50 115h1v1h-1zM51 115h1v1h-1zM52 115h1v1h-1zM53 115h1v1h-1zM54 115h1v1h-1zM55 115h1v1h-1zM56 115h1v1h-1zM57 115h1v1h-1zM58 115h1v1h-1zM59 115h1v1h-1zM60 115h1v1h-1zM61 115h1v1h-1zM62 115h1v1h-1zM63 115h1v1h-1zM64 115h1v1h-1zM65 115h1v1h-1zM66 115h1v1h-1zM67 115h1v1h-1zM68 115h1v1h-1zM69 115h1v1h-1z"/></svg>